<svg xmlns="http://www.w3.org/2000/svg" width="390.8" height="195" viewBox="0 0 390.8 195"><defs><marker id="start-arrow" markerWidth="10" markerHeight="7" refX="0" refY="3.5" orient="auto"><polygon points="0 0, 10 3.5, 0 7" fill="#64748b"/></marker><marker id="end-dot" markerWidth="8" markerHeight="8" refX="4" refY="4"><circle cx="4" cy="4" r="3" fill="#64748b"/></marker></defs><style>
		.literal rect { fill: #fee2e2; stroke: #ef4444; stroke-width: 1.5; }
		.literal text { fill: #991b1b; }
		.escape rect { fill: #ecfccb; stroke: #84cc16; stroke-width: 1.5; }
		.escape text { fill: #365314; }
		.charset rect { fill: #f5f0e1; stroke: #a39e8a; stroke-width: 1.5; }
		.charset text { fill: #57534e; }
		.anchor rect { fill: #334155; stroke: #1e293b; stroke-width: 1.5; }
		.anchor text { fill: #e2e8f0; }
		.any-character rect { fill: #dbeafe; stroke: #3b82f6; stroke-width: 1.5; }
		.any-character text { fill: #1e3a5f; }
		.flags rect { fill: #dbeafe; stroke: #3b82f6; stroke-width: 1.5; }
		.flags text { fill: #1e3a5f; }
		.recursive-ref rect { fill: #ede9fe; stroke: #8b5cf6; stroke-width: 1.5; }
		.recursive-ref text { fill: #4c1d95; }
		.callout rect { fill: #fff7ed; stroke: #f97316; stroke-width: 1.5; }
		.callout text { fill: #7c2d12; }
		.backtrack-control rect { fill: #fee2e2; stroke: #ef4444; stroke-width: 1.5; }
		.backtrack-control text { fill: #991b1b; }
		.conditional rect { fill: #e0f2fe; stroke: #0ea5e9; stroke-width: 1.5; }
		.conditional text { fill: #0c4a6e; }
		.comment rect { fill: #f3f4f6; stroke: #9ca3af; stroke-width: 1.5; stroke-dasharray: 4,2; }
		.comment text { fill: #6b7280; }
		.comment text { font-style: italic; }
		text { font-family: monospace; font-size: 13px; fill: #000; }
		.subexp-label, .charset-label, .flags-label { font-family: system-ui, -apple-system, sans-serif; font-size: 11px; }
		.repeat-label { fill: #64748b; font-family: system-ui, -apple-system, sans-serif; font-size: 11px; }
	</style><line x1="5" y1="104" x2="25" y2="104" stroke="#64748b" stroke-width="1.5" marker-start="url(#start-arrow)"/><line x1="369.8" y1="104" x2="382.8" y2="104" stroke="#64748b" stroke-width="1.5" marker-end="url(#end-dot)"/><g transform="translate(25,10)"><g class="match"><path d="M 33.4 94 L 43.4 94 M 301.4 94 L 311.4 94" fill="none" stroke="#64748b" stroke-width="1.5"/><g transform="translate(0,82.5)"><g class="literal"><rect x="0" y="0" width="33.4" height="23" rx="8" ry="8"/><text x="16.7" y="15.8333333333" font-family="monospace" font-size="13" text-anchor="middle"><tspan class="quote">&#34;</tspan><tspan>(</tspan><tspan class="quote">&#34;</tspan></text></g></g><g transform="translate(43.4,0)"><g class="repeat"><path d="M 0 94 Q 0 84 10 84 H 248 Q 258 84 258 94" fill="none" stroke="#64748b" stroke-width="1.5" class="skip-path"/><path d="M 258 94 Q 258 165 248 165 H 10 Q 0 165 0 94" fill="none" stroke="#64748b" stroke-width="1.5" class="loop-path"/><path d="M 134 160 L 129 165 L 134 170" fill="none" stroke="#64748b" stroke-width="1.5"/><g transform="translate(10,20)"><g class="subexp"><rect x="0" y="0" width="238" height="135" rx="8" ry="8" fill="none" stroke="#908c83" stroke-width="1.5"/><text x="10" y="13" font-family="system-ui, -apple-system, sans-serif" font-size="11" class="subexp-label">non-capturing group</text><g transform="translate(10,23)"><g class="regexp"><path d="M 0 51 Q 10 51 10 42.75 V 42.75 Q 10 34.5 67 34.5" fill="none" stroke="#64748b" stroke-width="1.5"/><path d="M 151 34.5 Q 208 34.5 208 42.75 V 42.75 Q 208 51 218 51" fill="none" stroke="#64748b" stroke-width="1.5"/><path d="M 0 51 Q 10 51 10 61 V 80.5 Q 10 90.5 20 90.5" fill="none" stroke="#64748b" stroke-width="1.5"/><path d="M 198 90.5 Q 208 90.5 208 80.5 V 61 Q 208 51 218 51" fill="none" stroke="#64748b" stroke-width="1.5"/><g transform="translate(20,0)"><g transform="translate(47,0)"><g class="match"><g class="charset"><rect x="0" y="0" width="84" height="69" rx="8" ry="8"/><text x="10" y="13" font-family="system-ui, -apple-system, sans-serif" font-size="11" class="charset-label">None of:</text><text x="42" y="36" font-family="monospace" font-size="13" text-anchor="middle">&#34;(&#34;</text><text x="42" y="54" font-family="monospace" font-size="13" text-anchor="middle">&#34;)&#34;</text></g></g></g></g><g transform="translate(20,0)"><g transform="translate(0,79)"><g class="match"><g class="recursive-ref"><rect x="0" y="0" width="178" height="23" rx="8" ry="8"/><text x="89" y="15.1666666667" font-family="system-ui, -apple-system, sans-serif" font-size="11" text-anchor="middle">recurse whole pattern</text></g></g></g></g></g></g></g></g><line x1="0" y1="94" x2="10" y2="94" stroke="#64748b" stroke-width="1.5"/><line x1="248" y1="94" x2="258" y2="94" stroke="#64748b" stroke-width="1.5"/></g></g><g transform="translate(311.4,82.5)"><g class="literal"><rect x="0" y="0" width="33.4" height="23" rx="8" ry="8"/><text x="16.7" y="15.8333333333" font-family="monospace" font-size="13" text-anchor="middle"><tspan class="quote">&#34;</tspan><tspan>)</tspan><tspan class="quote">&#34;</tspan></text></g></g></g></g></svg>