<svg xmlns="http://www.w3.org/2000/svg" width="368.8" height="294" viewBox="0 0 368.8 294"><defs><marker id="start-arrow" markerWidth="10" markerHeight="7" refX="0" refY="3.5" orient="auto"><polygon points="0 0, 10 3.5, 0 7" fill="#64748b"/></marker><marker id="end-dot" markerWidth="8" markerHeight="8" refX="4" refY="4"><circle cx="4" cy="4" r="3" fill="#64748b"/></marker></defs><style>
		.literal rect { fill: #fee2e2; stroke: #ef4444; stroke-width: 1.5; }
		.literal text { fill: #991b1b; }
		.escape rect { fill: #ecfccb; stroke: #84cc16; stroke-width: 1.5; }
		.escape text { fill: #365314; }
		.charset rect { fill: #f5f0e1; stroke: #a39e8a; stroke-width: 1.5; }
		.charset text { fill: #57534e; }
		.anchor rect { fill: #334155; stroke: #1e293b; stroke-width: 1.5; }
		.anchor text { fill: #e2e8f0; }
		.any-character rect { fill: #dbeafe; stroke: #3b82f6; stroke-width: 1.5; }
		.any-character text { fill: #1e3a5f; }
		.flags rect { fill: #dbeafe; stroke: #3b82f6; stroke-width: 1.5; }
		.flags text { fill: #1e3a5f; }
		.recursive-ref rect { fill: #ede9fe; stroke: #8b5cf6; stroke-width: 1.5; }
		.recursive-ref text { fill: #4c1d95; }
		.callout rect { fill: #fff7ed; stroke: #f97316; stroke-width: 1.5; }
		.callout text { fill: #7c2d12; }
		.backtrack-control rect { fill: #fee2e2; stroke: #ef4444; stroke-width: 1.5; }
		.backtrack-control text { fill: #991b1b; }
		.conditional rect { fill: #e0f2fe; stroke: #0ea5e9; stroke-width: 1.5; }
		.conditional text { fill: #0c4a6e; }
		.comment rect { fill: #f3f4f6; stroke: #9ca3af; stroke-width: 1.5; stroke-dasharray: 4,2; }
		.comment text { fill: #6b7280; }
		.comment text { font-style: italic; }
		text { font-family: monospace; font-size: 13px; fill: #000; }
		.subexp-label, .charset-label, .flags-label { font-family: system-ui, -apple-system, sans-serif; font-size: 11px; }
		.repeat-label { fill: #64748b; font-family: system-ui, -apple-system, sans-serif; font-size: 11px; }
	</style><line x1="5" y1="153.5" x2="25" y2="153.5" stroke="#64748b" stroke-width="1.5" marker-start="url(#start-arrow)"/><line x1="347.8" y1="153.5" x2="360.8" y2="153.5" stroke="#64748b" stroke-width="1.5" marker-end="url(#end-dot)"/><g transform="translate(25,10)"><g class="match"><path d="M 33.4 143.5 L 43.4 143.5 M 279.4 143.5 L 289.4 143.5" fill="none" stroke="#64748b" stroke-width="1.5"/><g transform="translate(0,132)"><g class="literal"><rect x="0" y="0" width="33.4" height="23" rx="8" ry="8"/><text x="16.7" y="15.8333333333" font-family="monospace" font-size="13" text-anchor="middle"><tspan class="quote">&#34;</tspan><tspan>(</tspan><tspan class="quote">&#34;</tspan></text></g></g><g transform="translate(43.4,0)"><g class="repeat"><path d="M 0 143.5 Q 0 133.5 10 133.5 H 226 Q 236 133.5 236 143.5" fill="none" stroke="#64748b" stroke-width="1.5" class="skip-path"/><path d="M 236 143.5 Q 236 264 226 264 H 10 Q 0 264 0 143.5" fill="none" stroke="#64748b" stroke-width="1.5" class="loop-path"/><path d="M 123 259 L 118 264 L 123 269" fill="none" stroke="#64748b" stroke-width="1.5"/><g transform="translate(10,20)"><g class="subexp"><rect x="0" y="0" width="216" height="234" rx="8" ry="8" fill="none" stroke="#908c83" stroke-width="1.5"/><text x="10" y="13" font-family="system-ui, -apple-system, sans-serif" font-size="11" class="subexp-label">non-capturing group</text><g transform="translate(10,23)"><g class="regexp"><path d="M 0 100.5 Q 10 100.5 10 90.5 V 44.5 Q 10 34.5 56 34.5" fill="none" stroke="#64748b" stroke-width="1.5"/><path d="M 140 34.5 Q 186 34.5 186 44.5 V 90.5 Q 186 100.5 196 100.5" fill="none" stroke="#64748b" stroke-width="1.5"/><path d="M 0 100.5 Q 10 100.5 10 107 V 107 Q 10 113.5 40 113.5" fill="none" stroke="#64748b" stroke-width="1.5"/><path d="M 156 113.5 Q 186 113.5 186 107 V 107 Q 186 100.5 196 100.5" fill="none" stroke="#64748b" stroke-width="1.5"/><path d="M 0 100.5 Q 10 100.5 10 110.5 V 169.5 Q 10 179.5 20 179.5" fill="none" stroke="#64748b" stroke-width="1.5"/><path d="M 176 179.5 Q 186 179.5 186 169.5 V 110.5 Q 186 100.5 196 100.5" fill="none" stroke="#64748b" stroke-width="1.5"/><g transform="translate(20,0)"><g transform="translate(36,0)"><g class="match"><g class="charset"><rect x="0" y="0" width="84" height="69" rx="8" ry="8"/><text x="10" y="13" font-family="system-ui, -apple-system, sans-serif" font-size="11" class="charset-label">None of:</text><text x="42" y="36" font-family="monospace" font-size="13" text-anchor="middle">&#34;(&#34;</text><text x="42" y="54" font-family="monospace" font-size="13" text-anchor="middle">&#34;)&#34;</text></g></g></g></g><g transform="translate(20,0)"><g transform="translate(20,79)"><g class="match"><g class="subexp"><rect x="0" y="0" width="116" height="56" rx="8" ry="8" fill="#cce5ff" stroke="#908c83" stroke-width="1.5"/><text x="10" y="13" font-family="system-ui, -apple-system, sans-serif" font-size="11" class="subexp-label">group #1 &#39;O&#39;</text><g transform="translate(41.3,23)"><g class="match"><g class="literal"><rect x="0" y="0" width="33.4" height="23" rx="8" ry="8"/><text x="16.7" y="15.8333333333" font-family="monospace" font-size="13" text-anchor="middle"><tspan class="quote">&#34;</tspan><tspan>(</tspan><tspan class="quote">&#34;</tspan></text></g></g></g></g></g></g></g><g transform="translate(20,0)"><g transform="translate(0,145)"><g class="match"><g class="subexp"><rect x="0" y="0" width="156" height="56" rx="8" ry="8" fill="#cce5ff" stroke="#908c83" stroke-width="1.5"/><text x="10" y="13" font-family="system-ui, -apple-system, sans-serif" font-size="11" class="subexp-label">balance (pop &#39;O&#39;)</text><g transform="translate(61.3,23)"><g class="match"><g class="literal"><rect x="0" y="0" width="33.4" height="23" rx="8" ry="8"/><text x="16.7" y="15.8333333333" font-family="monospace" font-size="13" text-anchor="middle"><tspan class="quote">&#34;</tspan><tspan>)</tspan><tspan class="quote">&#34;</tspan></text></g></g></g></g></g></g></g></g></g></g></g><line x1="0" y1="143.5" x2="10" y2="143.5" stroke="#64748b" stroke-width="1.5"/><line x1="226" y1="143.5" x2="236" y2="143.5" stroke="#64748b" stroke-width="1.5"/></g></g><g transform="translate(289.4,132)"><g class="literal"><rect x="0" y="0" width="33.4" height="23" rx="8" ry="8"/><text x="16.7" y="15.8333333333" font-family="monospace" font-size="13" text-anchor="middle"><tspan class="quote">&#34;</tspan><tspan>)</tspan><tspan class="quote">&#34;</tspan></text></g></g></g></g></svg>