<svg xmlns="http://www.w3.org/2000/svg" width="543.4" height="217" viewBox="0 0 543.4 217"><defs><marker id="start-arrow" markerWidth="10" markerHeight="7" refX="0" refY="3.5" orient="auto"><polygon points="0 0, 10 3.5, 0 7" fill="#64748b"/></marker><marker id="end-dot" markerWidth="8" markerHeight="8" refX="4" refY="4"><circle cx="4" cy="4" r="3" fill="#64748b"/></marker></defs><style>
		.literal rect { fill: #fee2e2; stroke: #ef4444; stroke-width: 1.5; }
		.literal text { fill: #991b1b; }
		.escape rect { fill: #ecfccb; stroke: #84cc16; stroke-width: 1.5; }
		.escape text { fill: #365314; }
		.charset rect { fill: #f5f0e1; stroke: #a39e8a; stroke-width: 1.5; }
		.charset text { fill: #57534e; }
		.anchor rect { fill: #334155; stroke: #1e293b; stroke-width: 1.5; }
		.anchor text { fill: #e2e8f0; }
		.any-character rect { fill: #dbeafe; stroke: #3b82f6; stroke-width: 1.5; }
		.any-character text { fill: #1e3a5f; }
		.flags rect { fill: #dbeafe; stroke: #3b82f6; stroke-width: 1.5; }
		.flags text { fill: #1e3a5f; }
		.recursive-ref rect { fill: #ede9fe; stroke: #8b5cf6; stroke-width: 1.5; }
		.recursive-ref text { fill: #4c1d95; }
		.callout rect { fill: #fff7ed; stroke: #f97316; stroke-width: 1.5; }
		.callout text { fill: #7c2d12; }
		.backtrack-control rect { fill: #fee2e2; stroke: #ef4444; stroke-width: 1.5; }
		.backtrack-control text { fill: #991b1b; }
		.conditional rect { fill: #e0f2fe; stroke: #0ea5e9; stroke-width: 1.5; }
		.conditional text { fill: #0c4a6e; }
		.comment rect { fill: #f3f4f6; stroke: #9ca3af; stroke-width: 1.5; stroke-dasharray: 4,2; }
		.comment text { fill: #6b7280; }
		.comment text { font-style: italic; }
		text { font-family: monospace; font-size: 13px; fill: #000; }
		.subexp-label, .charset-label, .flags-label { font-family: system-ui, -apple-system, sans-serif; font-size: 11px; }
		.repeat-label { fill: #64748b; font-family: system-ui, -apple-system, sans-serif; font-size: 11px; }
	</style><line x1="5" y1="98.5" x2="25" y2="98.5" stroke="#64748b" stroke-width="1.5" marker-start="url(#start-arrow)"/><line x1="522.4" y1="98.5" x2="535.4" y2="98.5" stroke="#64748b" stroke-width="1.5" marker-end="url(#end-dot)"/><g transform="translate(25,10)"><g class="match"><path d="M 130.2 88.5 L 140.2 88.5 M 173.6 88.5 L 183.6 88.5 M 313.8 88.5 L 323.8 88.5 M 357.2 88.5 L 367.2 88.5" fill="none" stroke="#64748b" stroke-width="1.5"/><g class="repeat"><path d="M 130.2 88.5 Q 130.2 187 120.2 187 H 10 Q 0 187 0 88.5" fill="none" stroke="#64748b" stroke-width="1.5" class="loop-path"/><path d="M 70.1 182 L 65.1 187 L 70.1 192" fill="none" stroke="#64748b" stroke-width="1.5"/><g transform="translate(10,0)"><g class="charset"><rect x="0" y="0" width="110.2" height="177" rx="8" ry="8"/><text x="10" y="13" font-family="system-ui, -apple-system, sans-serif" font-size="11" class="charset-label">One of:</text><text x="55.1" y="36" font-family="monospace" font-size="13" text-anchor="middle">&#34;a&#34; - &#34;z&#34;</text><text x="55.1" y="54" font-family="monospace" font-size="13" text-anchor="middle">&#34;A&#34; - &#34;Z&#34;</text><text x="55.1" y="72" font-family="monospace" font-size="13" text-anchor="middle">&#34;0&#34; - &#34;9&#34;</text><text x="55.1" y="90" font-family="monospace" font-size="13" text-anchor="middle">&#34;.&#34;</text><text x="55.1" y="108" font-family="monospace" font-size="13" text-anchor="middle">&#34;_&#34;</text><text x="55.1" y="126" font-family="monospace" font-size="13" text-anchor="middle">&#34;%&#34;</text><text x="55.1" y="144" font-family="monospace" font-size="13" text-anchor="middle">&#34;+&#34;</text><text x="55.1" y="162" font-family="monospace" font-size="13" text-anchor="middle">&#34;-&#34;</text></g></g><line x1="0" y1="88.5" x2="10" y2="88.5" stroke="#64748b" stroke-width="1.5"/><line x1="120.2" y1="88.5" x2="130.2" y2="88.5" stroke="#64748b" stroke-width="1.5"/></g><g transform="translate(140.2,77)"><g class="literal"><rect x="0" y="0" width="33.4" height="23" rx="8" ry="8"/><text x="16.7" y="15.8333333333" font-family="monospace" font-size="13" text-anchor="middle"><tspan class="quote">&#34;</tspan><tspan>@</tspan><tspan class="quote">&#34;</tspan></text></g></g><g transform="translate(183.6,27)"><g class="repeat"><path d="M 130.2 61.5 Q 130.2 133 120.2 133 H 10 Q 0 133 0 61.5" fill="none" stroke="#64748b" stroke-width="1.5" class="loop-path"/><path d="M 70.1 128 L 65.1 133 L 70.1 138" fill="none" stroke="#64748b" stroke-width="1.5"/><g transform="translate(10,0)"><g class="charset"><rect x="0" y="0" width="110.2" height="123" rx="8" ry="8"/><text x="10" y="13" font-family="system-ui, -apple-system, sans-serif" font-size="11" class="charset-label">One of:</text><text x="55.1" y="36" font-family="monospace" font-size="13" text-anchor="middle">&#34;a&#34; - &#34;z&#34;</text><text x="55.1" y="54" font-family="monospace" font-size="13" text-anchor="middle">&#34;A&#34; - &#34;Z&#34;</text><text x="55.1" y="72" font-family="monospace" font-size="13" text-anchor="middle">&#34;0&#34; - &#34;9&#34;</text><text x="55.1" y="90" font-family="monospace" font-size="13" text-anchor="middle">&#34;.&#34;</text><text x="55.1" y="108" font-family="monospace" font-size="13" text-anchor="middle">&#34;-&#34;</text></g></g><line x1="0" y1="61.5" x2="10" y2="61.5" stroke="#64748b" stroke-width="1.5"/><line x1="120.2" y1="61.5" x2="130.2" y2="61.5" stroke="#64748b" stroke-width="1.5"/></g></g><g transform="translate(323.8,77)"><g class="literal"><rect x="0" y="0" width="33.4" height="23" rx="8" ry="8"/><text x="16.7" y="15.8333333333" font-family="monospace" font-size="13" text-anchor="middle"><tspan class="quote">&#34;</tspan><tspan>.</tspan><tspan class="quote">&#34;</tspan></text></g></g><g transform="translate(367.2,54)"><g class="repeat"><path d="M 130.2 34.5 Q 130.2 79 120.2 79 H 10 Q 0 79 0 34.5" fill="none" stroke="#64748b" stroke-width="1.5" class="loop-path"/><path d="M 70.1 74 L 65.1 79 L 70.1 84" fill="none" stroke="#64748b" stroke-width="1.5"/><text x="65.1" y="92" font-family="system-ui, -apple-system, sans-serif" font-size="11" text-anchor="middle" class="repeat-label">2+ times</text><g transform="translate(10,0)"><g class="charset"><rect x="0" y="0" width="110.2" height="69" rx="8" ry="8"/><text x="10" y="13" font-family="system-ui, -apple-system, sans-serif" font-size="11" class="charset-label">One of:</text><text x="55.1" y="36" font-family="monospace" font-size="13" text-anchor="middle">&#34;a&#34; - &#34;z&#34;</text><text x="55.1" y="54" font-family="monospace" font-size="13" text-anchor="middle">&#34;A&#34; - &#34;Z&#34;</text></g></g><line x1="0" y1="34.5" x2="10" y2="34.5" stroke="#64748b" stroke-width="1.5"/><line x1="120.2" y1="34.5" x2="130.2" y2="34.5" stroke="#64748b" stroke-width="1.5"/></g></g></g></g></svg>