<svg xmlns="http://www.w3.org/2000/svg" width="1112" height="354" viewBox="0 0 1112 354"><defs><marker id="start-arrow" markerWidth="10" markerHeight="7" refX="0" refY="3.5" orient="auto"><polygon points="0 0, 10 3.5, 0 7" fill="#64748b"/></marker><marker id="end-dot" markerWidth="8" markerHeight="8" refX="4" refY="4"><circle cx="4" cy="4" r="3" fill="#64748b"/></marker></defs><style>
		.literal rect { fill: #fee2e2; stroke: #ef4444; stroke-width: 1.5; }
		.literal text { fill: #991b1b; }
		.escape rect { fill: #ecfccb; stroke: #84cc16; stroke-width: 1.5; }
		.escape text { fill: #365314; }
		.charset rect { fill: #f5f0e1; stroke: #a39e8a; stroke-width: 1.5; }
		.charset text { fill: #57534e; }
		.anchor rect { fill: #334155; stroke: #1e293b; stroke-width: 1.5; }
		.anchor text { fill: #e2e8f0; }
		.any-character rect { fill: #dbeafe; stroke: #3b82f6; stroke-width: 1.5; }
		.any-character text { fill: #1e3a5f; }
		.flags rect { fill: #dbeafe; stroke: #3b82f6; stroke-width: 1.5; }
		.flags text { fill: #1e3a5f; }
		.recursive-ref rect { fill: #ede9fe; stroke: #8b5cf6; stroke-width: 1.5; }
		.recursive-ref text { fill: #4c1d95; }
		.callout rect { fill: #fff7ed; stroke: #f97316; stroke-width: 1.5; }
		.callout text { fill: #7c2d12; }
		.backtrack-control rect { fill: #fee2e2; stroke: #ef4444; stroke-width: 1.5; }
		.backtrack-control text { fill: #991b1b; }
		.conditional rect { fill: #e0f2fe; stroke: #0ea5e9; stroke-width: 1.5; }
		.conditional text { fill: #0c4a6e; }
		.comment rect { fill: #f3f4f6; stroke: #9ca3af; stroke-width: 1.5; stroke-dasharray: 4,2; }
		.comment text { fill: #6b7280; }
		.comment text { font-style: italic; }
		text { font-family: monospace; font-size: 13px; fill: #000; }
		.subexp-label, .charset-label, .flags-label { font-family: system-ui, -apple-system, sans-serif; font-size: 11px; }
		.repeat-label { fill: #64748b; font-family: system-ui, -apple-system, sans-serif; font-size: 11px; }
	
		.analysis-border { pointer-events: none; }
		.analysis-badge-label { font-size: 10px; font-weight: bold; pointer-events: none; }
		.analysis-legend-title { font-weight: bold; }
		.analysis-suggestion { font-style: italic; }
	</style><line x1="5" y1="41.5" x2="25" y2="41.5" stroke="#64748b" stroke-width="1.5" marker-start="url(#start-arrow)"/><line x1="520.4" y1="41.5" x2="533.4" y2="41.5" stroke="#64748b" stroke-width="1.5" marker-end="url(#end-dot)"/><g transform="translate(25,10)"><g class="match"><path d="M 139 31.5 L 159 31.5 M 293 31.5 L 308 31.5 M 341.4 31.5 L 356.4 31.5" fill="none" stroke="#64748b" stroke-width="1.5"/><g transform="translate(5,0)"><g><g class="repeat"><path d="M 0 31.5 Q 0 21.5 10 21.5 H 124 Q 134 21.5 134 31.5" fill="none" stroke="#64748b" stroke-width="1.5" class="skip-path"/><path d="M 134 31.5 Q 134 53 124 53 H 10 Q 0 53 0 31.5" fill="none" stroke="#64748b" stroke-width="1.5" class="loop-path"/><path d="M 72 48 L 67 53 L 72 58" fill="none" stroke="#64748b" stroke-width="1.5"/><g transform="translate(10,20)"><g class="any-character"><rect x="0" y="0" width="114" height="23" rx="8" ry="8"/><text x="57" y="15.1666666667" font-family="system-ui, -apple-system, sans-serif" font-size="11" text-anchor="middle">any character</text></g></g><line x1="0" y1="31.5" x2="10" y2="31.5" stroke="#64748b" stroke-width="1.5"/><line x1="124" y1="31.5" x2="134" y2="31.5" stroke="#64748b" stroke-width="1.5"/></g><rect x="-5" y="-5" width="144" height="73" rx="8" ry="8" fill="none" stroke="#3182ce" stroke-width="2" stroke-dasharray="6,3" class="analysis-border"/><circle cx="135" cy="-1" r="8" fill="#3182ce" class="analysis-badge"/><text x="135" y="3" fill="#fff" text-anchor="middle" class="analysis-badge-label">i</text><title>Leading .* without anchor</title></g></g><g transform="translate(159,0)"><g><g class="repeat"><path d="M 0 31.5 Q 0 21.5 10 21.5 H 124 Q 134 21.5 134 31.5" fill="none" stroke="#64748b" stroke-width="1.5" class="skip-path"/><path d="M 134 31.5 Q 134 53 124 53 H 10 Q 0 53 0 31.5" fill="none" stroke="#64748b" stroke-width="1.5" class="loop-path"/><path d="M 72 48 L 67 53 L 72 58" fill="none" stroke="#64748b" stroke-width="1.5"/><g transform="translate(10,20)"><g class="any-character"><rect x="0" y="0" width="114" height="23" rx="8" ry="8"/><text x="57" y="15.1666666667" font-family="system-ui, -apple-system, sans-serif" font-size="11" text-anchor="middle">any character</text></g></g><line x1="0" y1="31.5" x2="10" y2="31.5" stroke="#64748b" stroke-width="1.5"/><line x1="124" y1="31.5" x2="134" y2="31.5" stroke="#64748b" stroke-width="1.5"/></g><rect x="-5" y="-5" width="144" height="73" rx="8" ry="8" fill="none" stroke="#e53e3e" stroke-width="2" stroke-dasharray="6,3" class="analysis-border"/><circle cx="135" cy="-1" r="8" fill="#e53e3e" class="analysis-badge"/><text x="135" y="3" fill="#fff" text-anchor="middle" class="analysis-badge-label">!</text><title>Adjacent unbounded quantifiers</title></g></g><g transform="translate(308,20)"><g class="literal"><rect x="0" y="0" width="33.4" height="23" rx="8" ry="8"/><text x="16.7" y="15.8333333333" font-family="monospace" font-size="13" text-anchor="middle"><tspan class="quote">&#34;</tspan><tspan>=</tspan><tspan class="quote">&#34;</tspan></text></g></g><g transform="translate(356.4,0)"><g><g class="repeat"><path d="M 0 31.5 Q 0 21.5 10 21.5 H 124 Q 134 21.5 134 31.5" fill="none" stroke="#64748b" stroke-width="1.5" class="skip-path"/><path d="M 134 31.5 Q 134 53 124 53 H 10 Q 0 53 0 31.5" fill="none" stroke="#64748b" stroke-width="1.5" class="loop-path"/><path d="M 72 48 L 67 53 L 72 58" fill="none" stroke="#64748b" stroke-width="1.5"/><g transform="translate(10,20)"><g class="any-character"><rect x="0" y="0" width="114" height="23" rx="8" ry="8"/><text x="57" y="15.1666666667" font-family="system-ui, -apple-system, sans-serif" font-size="11" text-anchor="middle">any character</text></g></g><line x1="0" y1="31.5" x2="10" y2="31.5" stroke="#64748b" stroke-width="1.5"/><line x1="124" y1="31.5" x2="134" y2="31.5" stroke="#64748b" stroke-width="1.5"/></g><rect x="-5" y="-5" width="144" height="73" rx="8" ry="8" fill="none" stroke="#3182ce" stroke-width="2" stroke-dasharray="6,3" class="analysis-border"/><circle cx="135" cy="-1" r="8" fill="#3182ce" class="analysis-badge"/><text x="135" y="3" fill="#fff" text-anchor="middle" class="analysis-badge-label">i</text><title>Trailing .* without anchor</title></g></g></g></g><g class="analysis-legend" transform="translate(10,103)"><g><text x="0" y="13" font-family="system-ui, -apple-system, sans-serif" font-size="13" fill="#000" class="analysis-legend-title">Analysis Findings</text><circle cx="5" cy="29" r="5" fill="#3182ce"/><text x="20" y="32" font-family="system-ui, -apple-system, sans-serif" font-size="12" fill="#000">[info] Pattern has no anchors</text><text x="20" y="51" font-family="system-ui, -apple-system, sans-serif" font-size="11" fill="#666">Adding ^ or $ anchors can help the engine skip impossible starting positions and improve performance.</text><circle cx="5" cy="67" r="5" fill="#e53e3e"/><text x="20" y="70" font-family="system-ui, -apple-system, sans-serif" font-size="12" fill="#000">[error] Adjacent unbounded quantifiers</text><text x="20" y="89" font-family="system-ui, -apple-system, sans-serif" font-size="11" fill="#666">Adjacent unbounded quantifiers cause catastrophic backtracking. The engine tries all combinations of splitting the input between them.</text><text x="20" y="108" font-family="system-ui, -apple-system, sans-serif" font-size="11" fill="#888" class="analysis-suggestion">Combine into a single quantifier, add a separating literal, or use a non-greedy/possessive modifier.</text><circle cx="5" cy="124" r="5" fill="#3182ce"/><text x="20" y="127" font-family="system-ui, -apple-system, sans-serif" font-size="12" fill="#000">[info] Trailing .* without anchor</text><text x="20" y="146" font-family="system-ui, -apple-system, sans-serif" font-size="11" fill="#666">Trailing .* is redundant when using search (not full-match) semantics.</text><text x="20" y="165" font-family="system-ui, -apple-system, sans-serif" font-size="11" fill="#888" class="analysis-suggestion">Remove the trailing .* or add a $ anchor if full-match is intended.</text><circle cx="5" cy="181" r="5" fill="#3182ce"/><text x="20" y="184" font-family="system-ui, -apple-system, sans-serif" font-size="12" fill="#000">[info] Leading .* without anchor</text><text x="20" y="203" font-family="system-ui, -apple-system, sans-serif" font-size="11" fill="#666">Leading .* is redundant when using search semantics, as the engine already tries all starting positions.</text><text x="20" y="222" font-family="system-ui, -apple-system, sans-serif" font-size="11" fill="#888" class="analysis-suggestion">Remove the leading .* or add a ^ anchor if full-match is intended.</text></g></g></svg>