<svg xmlns="http://www.w3.org/2000/svg" width="380.4" height="93" viewBox="0 0 380.4 93"><style>
		.literal rect { fill: #ff6b6b; }
		.escape rect { fill: #bada55; }
		.charset rect { fill: #cbcbba; }
		.anchor rect { fill: #6b6659; }
		.any-character rect { fill: #dae9e5; }
		.flags rect { fill: #c8e0f9; }
		.recursive-ref rect { fill: #c9b3ff; }
		.callout rect { fill: #ffd699; }
		.backtrack-control rect { fill: #ffb3a7; }
		.conditional rect { fill: #b3e5fc; }
		.comment rect { fill: #e8e8e8; stroke: #999; stroke-dasharray: 4,2; }
		.comment text { fill: #666; font-style: italic; }
		text { font-family: monospace; font-size: 14px; fill: #000; }
		.anchor text { fill: #fff; }
		.quote { fill: #000; }
		.subexp-label, .charset-label, .flags-label { font-size: 12px; font-style: italic; }
		.repeat-label { fill: #666; font-size: 12px; }
	</style><line x1="5" y1="36.5" x2="10" y2="36.5" stroke="#000" stroke-width="2"/><line x1="370.4" y1="36.5" x2="375.4" y2="36.5" stroke="#000" stroke-width="2"/><g transform="translate(10,10)"><g class="match"><path d="M 119.2 26.5 L 129.2 26.5 M 231.2 26.5 L 241.2 26.5" fill="none" stroke="#000" stroke-width="2"/><g transform="translate(0,14.5)"><g class="anchor"><rect x="0" y="0" width="119.2" height="24" rx="3" ry="3"/><text x="59.6" y="16.6666666667" font-family="monospace" font-size="14" text-anchor="middle">Word boundary</text></g></g><g transform="translate(129.2,0)"><g class="repeat"><path d="M 102 26.5 Q 102 63 92 63 H 10 Q 0 63 0 26.5" fill="none" stroke="#000" stroke-width="2" class="loop-path"/><path d="M 56 58 L 51 63 L 56 68" fill="none" stroke="#000" stroke-width="2"/><g transform="translate(10,0)"><g class="charset"><rect x="0" y="0" width="82" height="53" rx="3" ry="3"/><text x="10" y="14" font-family="monospace" font-size="12" class="charset-label">One of:</text><text x="41" y="38" font-family="monospace" font-size="14" text-anchor="middle">digit</text></g></g><line x1="0" y1="26.5" x2="10" y2="26.5" stroke="#000" stroke-width="2"/><line x1="92" y1="26.5" x2="102" y2="26.5" stroke="#000" stroke-width="2"/></g></g><g transform="translate(241.2,14.5)"><g class="anchor"><rect x="0" y="0" width="119.2" height="24" rx="3" ry="3"/><text x="59.6" y="16.6666666667" font-family="monospace" font-size="14" text-anchor="middle">Word boundary</text></g></g></g></g></svg>