<svg xmlns="http://www.w3.org/2000/svg" width="889.4" height="363" viewBox="0 0 889.4 363"><defs><marker id="start-arrow" markerWidth="10" markerHeight="7" refX="0" refY="3.5" orient="auto"><polygon points="0 0, 10 3.5, 0 7" fill="#64748b"/></marker><marker id="end-dot" markerWidth="8" markerHeight="8" refX="4" refY="4"><circle cx="4" cy="4" r="3" fill="#64748b"/></marker></defs><style>
		.literal rect { fill: #fee2e2; stroke: #ef4444; stroke-width: 1.5; }
		.literal text { fill: #991b1b; }
		.escape rect { fill: #ecfccb; stroke: #84cc16; stroke-width: 1.5; }
		.escape text { fill: #365314; }
		.charset rect { fill: #f5f0e1; stroke: #a39e8a; stroke-width: 1.5; }
		.charset text { fill: #57534e; }
		.anchor rect { fill: #334155; stroke: #1e293b; stroke-width: 1.5; }
		.anchor text { fill: #e2e8f0; }
		.any-character rect { fill: #dbeafe; stroke: #3b82f6; stroke-width: 1.5; }
		.any-character text { fill: #1e3a5f; }
		.flags rect { fill: #dbeafe; stroke: #3b82f6; stroke-width: 1.5; }
		.flags text { fill: #1e3a5f; }
		.recursive-ref rect { fill: #ede9fe; stroke: #8b5cf6; stroke-width: 1.5; }
		.recursive-ref text { fill: #4c1d95; }
		.callout rect { fill: #fff7ed; stroke: #f97316; stroke-width: 1.5; }
		.callout text { fill: #7c2d12; }
		.backtrack-control rect { fill: #fee2e2; stroke: #ef4444; stroke-width: 1.5; }
		.backtrack-control text { fill: #991b1b; }
		.conditional rect { fill: #e0f2fe; stroke: #0ea5e9; stroke-width: 1.5; }
		.conditional text { fill: #0c4a6e; }
		.comment rect { fill: #f3f4f6; stroke: #9ca3af; stroke-width: 1.5; stroke-dasharray: 4,2; }
		.comment text { fill: #6b7280; }
		.comment text { font-style: italic; }
		text { font-family: monospace; font-size: 13px; fill: #000; }
		.subexp-label, .charset-label, .flags-label { font-family: system-ui, -apple-system, sans-serif; font-size: 11px; }
		.repeat-label { fill: #64748b; font-family: system-ui, -apple-system, sans-serif; font-size: 11px; }
	</style><line x1="5" y1="178" x2="25" y2="178" stroke="#64748b" stroke-width="1.5" marker-start="url(#start-arrow)"/><line x1="868.4" y1="178" x2="881.4" y2="178" stroke="#64748b" stroke-width="1.5" marker-end="url(#end-dot)"/><g transform="translate(25,10)"><g class="match"><path d="M 357.4 168 L 367.4 168 M 641.4 168 L 651.4 168" fill="none" stroke="#64748b" stroke-width="1.5"/><g class="repeat"><path d="M 357.4 168 Q 357.4 320 347.4 320 H 10 Q 0 320 0 168" fill="none" stroke="#64748b" stroke-width="1.5" class="loop-path"/><path d="M 183.7 315 L 178.7 320 L 183.7 325" fill="none" stroke="#64748b" stroke-width="1.5"/><text x="178.7" y="333" font-family="system-ui, -apple-system, sans-serif" font-size="11" text-anchor="middle" class="repeat-label">3 times</text><g transform="translate(10,0)"><g class="subexp"><rect x="0" y="0" width="337.4" height="310" rx="8" ry="8" fill="none" stroke="#908c83" stroke-width="1.5"/><text x="10" y="13" font-family="system-ui, -apple-system, sans-serif" font-size="11" class="subexp-label">non-capturing group</text><g transform="translate(10,23)"><g class="match"><path d="M 274 145 L 284 145" fill="none" stroke="#64748b" stroke-width="1.5"/><g class="subexp"><rect x="0" y="0" width="274" height="277" rx="8" ry="8" fill="#cce5ff" stroke="#908c83" stroke-width="1.5"/><text x="10" y="13" font-family="system-ui, -apple-system, sans-serif" font-size="11" class="subexp-label">non-capturing group</text><g transform="translate(10,23)"><g class="regexp"><path d="M 0 122 Q 10 122 10 112 V 21.5 Q 10 11.5 102.5 11.5" fill="none" stroke="#64748b" stroke-width="1.5"/><path d="M 151.5 11.5 Q 244 11.5 244 21.5 V 112 Q 244 122 254 122" fill="none" stroke="#64748b" stroke-width="1.5"/><path d="M 0 122 Q 10 122 10 112 V 97.5 Q 10 87.5 20 87.5" fill="none" stroke="#64748b" stroke-width="1.5"/><path d="M 234 87.5 Q 244 87.5 244 97.5 V 112 Q 244 122 254 122" fill="none" stroke="#64748b" stroke-width="1.5"/><path d="M 0 122 Q 10 122 10 132 V 147.5 Q 10 157.5 20.7 157.5" fill="none" stroke="#64748b" stroke-width="1.5"/><path d="M 233.3 157.5 Q 244 157.5 244 147.5 V 132 Q 244 122 254 122" fill="none" stroke="#64748b" stroke-width="1.5"/><path d="M 0 122 Q 10 122 10 132 V 208.5 Q 10 218.5 46.3 218.5" fill="none" stroke="#64748b" stroke-width="1.5"/><path d="M 207.7 218.5 Q 244 218.5 244 208.5 V 132 Q 244 122 254 122" fill="none" stroke="#64748b" stroke-width="1.5"/><g transform="translate(20,0)"><g transform="translate(82.5,0)"><g class="match"><g class="escape"><rect x="0" y="0" width="49" height="23" rx="8" ry="8"/><text x="24.5" y="15.8333333333" font-family="monospace" font-size="13" text-anchor="middle">digit</text></g></g></g></g><g transform="translate(20,0)"><g transform="translate(0,33)"><g class="match"><path d="M 96 54.5 L 106 54.5 M 155 54.5 L 165 54.5" fill="none" stroke="#64748b" stroke-width="1.5"/><g class="repeat"><path d="M 0 54.5 Q 0 44.5 10 44.5 H 86 Q 96 44.5 96 54.5" fill="none" stroke="#64748b" stroke-width="1.5" class="skip-path"/><g transform="translate(10,20)"><g class="charset"><rect x="0" y="0" width="76" height="69" rx="8" ry="8"/><text x="10" y="13" font-family="system-ui, -apple-system, sans-serif" font-size="11" class="charset-label">One of:</text><text x="38" y="36" font-family="monospace" font-size="13" text-anchor="middle">&#34;0&#34;</text><text x="38" y="54" font-family="monospace" font-size="13" text-anchor="middle">&#34;1&#34;</text></g></g><line x1="0" y1="54.5" x2="10" y2="54.5" stroke="#64748b" stroke-width="1.5"/><line x1="86" y1="54.5" x2="96" y2="54.5" stroke="#64748b" stroke-width="1.5"/></g><g transform="translate(106,43)"><g class="escape"><rect x="0" y="0" width="49" height="23" rx="8" ry="8"/><text x="24.5" y="15.8333333333" font-family="monospace" font-size="13" text-anchor="middle">digit</text></g></g><g transform="translate(165,43)"><g class="escape"><rect x="0" y="0" width="49" height="23" rx="8" ry="8"/><text x="24.5" y="15.8333333333" font-family="monospace" font-size="13" text-anchor="middle">digit</text></g></g></g></g></g><g transform="translate(20,0)"><g transform="translate(0.7,132)"><g class="match"><path d="M 33.4 25.5 L 43.4 25.5 M 153.6 25.5 L 163.6 25.5" fill="none" stroke="#64748b" stroke-width="1.5"/><g transform="translate(0,14)"><g class="literal"><rect x="0" y="0" width="33.4" height="23" rx="8" ry="8"/><text x="16.7" y="15.8333333333" font-family="monospace" font-size="13" text-anchor="middle"><tspan class="quote">&#34;</tspan><tspan>2</tspan><tspan class="quote">&#34;</tspan></text></g></g><g transform="translate(43.4,0)"><g class="charset"><rect x="0" y="0" width="110.2" height="51" rx="8" ry="8"/><text x="10" y="13" font-family="system-ui, -apple-system, sans-serif" font-size="11" class="charset-label">One of:</text><text x="55.1" y="36" font-family="monospace" font-size="13" text-anchor="middle">&#34;0&#34; - &#34;4&#34;</text></g></g><g transform="translate(163.6,14)"><g class="escape"><rect x="0" y="0" width="49" height="23" rx="8" ry="8"/><text x="24.5" y="15.8333333333" font-family="monospace" font-size="13" text-anchor="middle">digit</text></g></g></g></g></g><g transform="translate(20,0)"><g transform="translate(26.3,193)"><g class="match"><path d="M 41.2 25.5 L 51.2 25.5" fill="none" stroke="#64748b" stroke-width="1.5"/><g transform="translate(0,14)"><g class="literal"><rect x="0" y="0" width="41.2" height="23" rx="8" ry="8"/><text x="20.6" y="15.8333333333" font-family="monospace" font-size="13" text-anchor="middle"><tspan class="quote">&#34;</tspan><tspan>25</tspan><tspan class="quote">&#34;</tspan></text></g></g><g transform="translate(51.2,0)"><g class="charset"><rect x="0" y="0" width="110.2" height="51" rx="8" ry="8"/><text x="10" y="13" font-family="system-ui, -apple-system, sans-serif" font-size="11" class="charset-label">One of:</text><text x="55.1" y="36" font-family="monospace" font-size="13" text-anchor="middle">&#34;0&#34; - &#34;5&#34;</text></g></g></g></g></g></g></g></g><g transform="translate(284,133.5)"><g class="literal"><rect x="0" y="0" width="33.4" height="23" rx="8" ry="8"/><text x="16.7" y="15.8333333333" font-family="monospace" font-size="13" text-anchor="middle"><tspan class="quote">&#34;</tspan><tspan>.</tspan><tspan class="quote">&#34;</tspan></text></g></g></g></g></g></g><line x1="0" y1="168" x2="10" y2="168" stroke="#64748b" stroke-width="1.5"/><line x1="347.4" y1="168" x2="357.4" y2="168" stroke="#64748b" stroke-width="1.5"/></g><g transform="translate(367.4,23)"><g class="subexp"><rect x="0" y="0" width="274" height="277" rx="8" ry="8" fill="none" stroke="#908c83" stroke-width="1.5"/><text x="10" y="13" font-family="system-ui, -apple-system, sans-serif" font-size="11" class="subexp-label">non-capturing group</text><g transform="translate(10,23)"><g class="regexp"><path d="M 0 122 Q 10 122 10 112 V 35.5 Q 10 25.5 46.3 25.5" fill="none" stroke="#64748b" stroke-width="1.5"/><path d="M 207.7 25.5 Q 244 25.5 244 35.5 V 112 Q 244 122 254 122" fill="none" stroke="#64748b" stroke-width="1.5"/><path d="M 0 122 Q 10 122 10 112 V 96.5 Q 10 86.5 20.7 86.5" fill="none" stroke="#64748b" stroke-width="1.5"/><path d="M 233.3 86.5 Q 244 86.5 244 96.5 V 112 Q 244 122 254 122" fill="none" stroke="#64748b" stroke-width="1.5"/><path d="M 0 122 Q 10 122 10 132 V 166.5 Q 10 176.5 20 176.5" fill="none" stroke="#64748b" stroke-width="1.5"/><path d="M 234 176.5 Q 244 176.5 244 166.5 V 132 Q 244 122 254 122" fill="none" stroke="#64748b" stroke-width="1.5"/><path d="M 0 122 Q 10 122 10 132 V 222.5 Q 10 232.5 102.5 232.5" fill="none" stroke="#64748b" stroke-width="1.5"/><path d="M 151.5 232.5 Q 244 232.5 244 222.5 V 132 Q 244 122 254 122" fill="none" stroke="#64748b" stroke-width="1.5"/><g transform="translate(20,0)"><g transform="translate(26.3,0)"><g class="match"><path d="M 41.2 25.5 L 51.2 25.5" fill="none" stroke="#64748b" stroke-width="1.5"/><g transform="translate(0,14)"><g class="literal"><rect x="0" y="0" width="41.2" height="23" rx="8" ry="8"/><text x="20.6" y="15.8333333333" font-family="monospace" font-size="13" text-anchor="middle"><tspan class="quote">&#34;</tspan><tspan>25</tspan><tspan class="quote">&#34;</tspan></text></g></g><g transform="translate(51.2,0)"><g class="charset"><rect x="0" y="0" width="110.2" height="51" rx="8" ry="8"/><text x="10" y="13" font-family="system-ui, -apple-system, sans-serif" font-size="11" class="charset-label">One of:</text><text x="55.1" y="36" font-family="monospace" font-size="13" text-anchor="middle">&#34;0&#34; - &#34;5&#34;</text></g></g></g></g></g><g transform="translate(20,0)"><g transform="translate(0.7,61)"><g class="match"><path d="M 33.4 25.5 L 43.4 25.5 M 153.6 25.5 L 163.6 25.5" fill="none" stroke="#64748b" stroke-width="1.5"/><g transform="translate(0,14)"><g class="literal"><rect x="0" y="0" width="33.4" height="23" rx="8" ry="8"/><text x="16.7" y="15.8333333333" font-family="monospace" font-size="13" text-anchor="middle"><tspan class="quote">&#34;</tspan><tspan>2</tspan><tspan class="quote">&#34;</tspan></text></g></g><g transform="translate(43.4,0)"><g class="charset"><rect x="0" y="0" width="110.2" height="51" rx="8" ry="8"/><text x="10" y="13" font-family="system-ui, -apple-system, sans-serif" font-size="11" class="charset-label">One of:</text><text x="55.1" y="36" font-family="monospace" font-size="13" text-anchor="middle">&#34;0&#34; - &#34;4&#34;</text></g></g><g transform="translate(163.6,14)"><g class="escape"><rect x="0" y="0" width="49" height="23" rx="8" ry="8"/><text x="24.5" y="15.8333333333" font-family="monospace" font-size="13" text-anchor="middle">digit</text></g></g></g></g></g><g transform="translate(20,0)"><g transform="translate(0,122)"><g class="match"><path d="M 96 54.5 L 106 54.5 M 155 54.5 L 165 54.5" fill="none" stroke="#64748b" stroke-width="1.5"/><g class="repeat"><path d="M 0 54.5 Q 0 44.5 10 44.5 H 86 Q 96 44.5 96 54.5" fill="none" stroke="#64748b" stroke-width="1.5" class="skip-path"/><g transform="translate(10,20)"><g class="charset"><rect x="0" y="0" width="76" height="69" rx="8" ry="8"/><text x="10" y="13" font-family="system-ui, -apple-system, sans-serif" font-size="11" class="charset-label">One of:</text><text x="38" y="36" font-family="monospace" font-size="13" text-anchor="middle">&#34;0&#34;</text><text x="38" y="54" font-family="monospace" font-size="13" text-anchor="middle">&#34;1&#34;</text></g></g><line x1="0" y1="54.5" x2="10" y2="54.5" stroke="#64748b" stroke-width="1.5"/><line x1="86" y1="54.5" x2="96" y2="54.5" stroke="#64748b" stroke-width="1.5"/></g><g transform="translate(106,43)"><g class="escape"><rect x="0" y="0" width="49" height="23" rx="8" ry="8"/><text x="24.5" y="15.8333333333" font-family="monospace" font-size="13" text-anchor="middle">digit</text></g></g><g transform="translate(165,43)"><g class="escape"><rect x="0" y="0" width="49" height="23" rx="8" ry="8"/><text x="24.5" y="15.8333333333" font-family="monospace" font-size="13" text-anchor="middle">digit</text></g></g></g></g></g><g transform="translate(20,0)"><g transform="translate(82.5,221)"><g class="match"><g class="escape"><rect x="0" y="0" width="49" height="23" rx="8" ry="8"/><text x="24.5" y="15.8333333333" font-family="monospace" font-size="13" text-anchor="middle">digit</text></g></g></g></g></g></g></g></g><g transform="translate(651.4,113.5)"><g class="repeat"><path d="M 0 54.5 Q 0 44.5 10 44.5 H 182 Q 192 44.5 192 54.5" fill="none" stroke="#64748b" stroke-width="1.5" class="skip-path"/><g transform="translate(10,20)"><g class="subexp"><rect x="0" y="0" width="172" height="89" rx="8" ry="8" fill="none" stroke="#908c83" stroke-width="1.5"/><text x="10" y="13" font-family="system-ui, -apple-system, sans-serif" font-size="11" class="subexp-label">non-capturing group</text><g transform="translate(29.8,23)"><g class="match"><path d="M 33.4 11.5 L 43.4 11.5" fill="none" stroke="#64748b" stroke-width="1.5"/><g class="literal"><rect x="0" y="0" width="33.4" height="23" rx="8" ry="8"/><text x="16.7" y="15.8333333333" font-family="monospace" font-size="13" text-anchor="middle"><tspan class="quote">&#34;</tspan><tspan>/</tspan><tspan class="quote">&#34;</tspan></text></g><g transform="translate(43.4,0)"><g class="repeat"><path d="M 69 11.5 Q 69 33 59 33 H 10 Q 0 33 0 11.5" fill="none" stroke="#64748b" stroke-width="1.5" class="loop-path"/><path d="M 39.5 28 L 34.5 33 L 39.5 38" fill="none" stroke="#64748b" stroke-width="1.5"/><text x="34.5" y="46" font-family="system-ui, -apple-system, sans-serif" font-size="11" text-anchor="middle" class="repeat-label">1 to 2 times</text><g transform="translate(10,0)"><g class="escape"><rect x="0" y="0" width="49" height="23" rx="8" ry="8"/><text x="24.5" y="15.8333333333" font-family="monospace" font-size="13" text-anchor="middle">digit</text></g></g><line x1="0" y1="11.5" x2="10" y2="11.5" stroke="#64748b" stroke-width="1.5"/><line x1="59" y1="11.5" x2="69" y2="11.5" stroke="#64748b" stroke-width="1.5"/></g></g></g></g></g></g><line x1="0" y1="54.5" x2="10" y2="54.5" stroke="#64748b" stroke-width="1.5"/><line x1="182" y1="54.5" x2="192" y2="54.5" stroke="#64748b" stroke-width="1.5"/></g></g></g></g></svg>