<svg xmlns="http://www.w3.org/2000/svg" width="890.4" height="374" viewBox="0 0 890.4 374"><style>
		.literal rect { fill: #ff6b6b; }
		.escape rect { fill: #bada55; }
		.charset rect { fill: #cbcbba; }
		.anchor rect { fill: #6b6659; }
		.any-character rect { fill: #dae9e5; }
		.flags rect { fill: #c8e0f9; }
		.recursive-ref rect { fill: #c9b3ff; }
		.callout rect { fill: #ffd699; }
		.backtrack-control rect { fill: #ffb3a7; }
		.conditional rect { fill: #b3e5fc; }
		.comment rect { fill: #e8e8e8; stroke: #999; stroke-dasharray: 4,2; }
		.comment text { fill: #666; font-style: italic; }
		text { font-family: monospace; font-size: 14px; fill: #000; }
		.anchor text { fill: #fff; }
		.quote { fill: #000; }
		.subexp-label, .charset-label, .flags-label { font-size: 12px; font-style: italic; }
		.repeat-label { fill: #666; font-size: 12px; }
	</style><line x1="5" y1="184" x2="10" y2="184" stroke="#000" stroke-width="2"/><line x1="880.4" y1="184" x2="885.4" y2="184" stroke="#000" stroke-width="2"/><g transform="translate(10,10)"><g class="match"><path d="M 368 174 L 378 174 M 660.8 174 L 670.8 174" fill="none" stroke="#000" stroke-width="2"/><g class="repeat"><path d="M 368 174 Q 368 330 358 330 H 10 Q 0 330 0 174" fill="none" stroke="#000" stroke-width="2" class="loop-path"/><path d="M 189 325 L 184 330 L 189 335" fill="none" stroke="#000" stroke-width="2"/><text x="184" y="344" font-family="monospace" font-size="12" text-anchor="middle" class="repeat-label">3 times</text><g transform="translate(10,0)"><g class="subexp"><rect x="0" y="0" width="348" height="320" rx="3" ry="3" fill="none" stroke="#908c83" stroke-width="2"/><text x="10" y="14" font-family="monospace" font-size="12" class="subexp-label">non-capturing group</text><g transform="translate(10,24)"><g class="match"><path d="M 282.8 150 L 292.8 150" fill="none" stroke="#000" stroke-width="2"/><g class="subexp"><rect x="0" y="0" width="282.8" height="286" rx="3" ry="3" fill="#cce5ff" stroke="#908c83" stroke-width="2"/><text x="10" y="14" font-family="monospace" font-size="12" class="subexp-label">non-capturing group</text><g transform="translate(10,24)"><g class="regexp"><path d="M 0 126 Q 10 126 10 116 V 22 Q 10 12 105.4 12" fill="none" stroke="#000" stroke-width="2"/><path d="M 157.4 12 Q 252.8 12 252.8 22 V 116 Q 252.8 126 262.8 126" fill="none" stroke="#000" stroke-width="2"/><path d="M 0 126 Q 10 126 10 116 V 100 Q 10 90 20 90" fill="none" stroke="#000" stroke-width="2"/><path d="M 242.8 90 Q 252.8 90 252.8 100 V 116 Q 252.8 126 262.8 126" fill="none" stroke="#000" stroke-width="2"/><path d="M 0 126 Q 10 126 10 136 V 152.5 Q 10 162.5 20 162.5" fill="none" stroke="#000" stroke-width="2"/><path d="M 242.8 162.5 Q 252.8 162.5 252.8 152.5 V 136 Q 252.8 126 262.8 126" fill="none" stroke="#000" stroke-width="2"/><path d="M 0 126 Q 10 126 10 136 V 215.5 Q 10 225.5 46.8 225.5" fill="none" stroke="#000" stroke-width="2"/><path d="M 216 225.5 Q 252.8 225.5 252.8 215.5 V 136 Q 252.8 126 262.8 126" fill="none" stroke="#000" stroke-width="2"/><g transform="translate(20,0)"><g transform="translate(85.4,0)"><g class="match"><g class="escape"><rect x="0" y="0" width="52" height="24" rx="3" ry="3"/><text x="26" y="16.6666666667" font-family="monospace" font-size="14" text-anchor="middle">digit</text></g></g></g></g><g transform="translate(20,0)"><g transform="translate(0,34)"><g class="match"><path d="M 98.8 56 L 108.8 56 M 160.8 56 L 170.8 56" fill="none" stroke="#000" stroke-width="2"/><g class="repeat"><path d="M 0 56 Q 0 46 10 46 H 88.8 Q 98.8 46 98.8 56" fill="none" stroke="#000" stroke-width="2" class="skip-path"/><g transform="translate(10,20)"><g class="charset"><rect x="0" y="0" width="78.8" height="72" rx="3" ry="3"/><text x="10" y="14" font-family="monospace" font-size="12" class="charset-label">One of:</text><text x="39.4" y="38" font-family="monospace" font-size="14" text-anchor="middle">&#34;0&#34;</text><text x="39.4" y="57" font-family="monospace" font-size="14" text-anchor="middle">&#34;1&#34;</text></g></g><line x1="0" y1="56" x2="10" y2="56" stroke="#000" stroke-width="2"/><line x1="88.8" y1="56" x2="98.8" y2="56" stroke="#000" stroke-width="2"/></g><g transform="translate(108.8,44)"><g class="escape"><rect x="0" y="0" width="52" height="24" rx="3" ry="3"/><text x="26" y="16.6666666667" font-family="monospace" font-size="14" text-anchor="middle">digit</text></g></g><g transform="translate(170.8,44)"><g class="escape"><rect x="0" y="0" width="52" height="24" rx="3" ry="3"/><text x="26" y="16.6666666667" font-family="monospace" font-size="14" text-anchor="middle">digit</text></g></g></g></g></g><g transform="translate(20,0)"><g transform="translate(0,136)"><g class="match"><path d="M 35.2 26.5 L 45.2 26.5 M 160.8 26.5 L 170.8 26.5" fill="none" stroke="#000" stroke-width="2"/><g transform="translate(0,14.5)"><g class="literal"><rect x="0" y="0" width="35.2" height="24" rx="3" ry="3"/><text x="17.6" y="16.6666666667" font-family="monospace" font-size="14" text-anchor="middle"><tspan class="quote">&#34;</tspan><tspan>2</tspan><tspan class="quote">&#34;</tspan></text></g></g><g transform="translate(45.2,0)"><g class="charset"><rect x="0" y="0" width="115.6" height="53" rx="3" ry="3"/><text x="10" y="14" font-family="monospace" font-size="12" class="charset-label">One of:</text><text x="57.8" y="38" font-family="monospace" font-size="14" text-anchor="middle">&#34;0&#34; - &#34;4&#34;</text></g></g><g transform="translate(170.8,14.5)"><g class="escape"><rect x="0" y="0" width="52" height="24" rx="3" ry="3"/><text x="26" y="16.6666666667" font-family="monospace" font-size="14" text-anchor="middle">digit</text></g></g></g></g></g><g transform="translate(20,0)"><g transform="translate(26.8,199)"><g class="match"><path d="M 43.6 26.5 L 53.6 26.5" fill="none" stroke="#000" stroke-width="2"/><g transform="translate(0,14.5)"><g class="literal"><rect x="0" y="0" width="43.6" height="24" rx="3" ry="3"/><text x="21.8" y="16.6666666667" font-family="monospace" font-size="14" text-anchor="middle"><tspan class="quote">&#34;</tspan><tspan>25</tspan><tspan class="quote">&#34;</tspan></text></g></g><g transform="translate(53.6,0)"><g class="charset"><rect x="0" y="0" width="115.6" height="53" rx="3" ry="3"/><text x="10" y="14" font-family="monospace" font-size="12" class="charset-label">One of:</text><text x="57.8" y="38" font-family="monospace" font-size="14" text-anchor="middle">&#34;0&#34; - &#34;5&#34;</text></g></g></g></g></g></g></g></g><g transform="translate(292.8,138)"><g class="literal"><rect x="0" y="0" width="35.2" height="24" rx="3" ry="3"/><text x="17.6" y="16.6666666667" font-family="monospace" font-size="14" text-anchor="middle"><tspan class="quote">&#34;</tspan><tspan>.</tspan><tspan class="quote">&#34;</tspan></text></g></g></g></g></g></g><line x1="0" y1="174" x2="10" y2="174" stroke="#000" stroke-width="2"/><line x1="358" y1="174" x2="368" y2="174" stroke="#000" stroke-width="2"/></g><g transform="translate(378,24)"><g class="subexp"><rect x="0" y="0" width="282.8" height="286" rx="3" ry="3" fill="none" stroke="#908c83" stroke-width="2"/><text x="10" y="14" font-family="monospace" font-size="12" class="subexp-label">non-capturing group</text><g transform="translate(10,24)"><g class="regexp"><path d="M 0 126 Q 10 126 10 116 V 36.5 Q 10 26.5 46.8 26.5" fill="none" stroke="#000" stroke-width="2"/><path d="M 216 26.5 Q 252.8 26.5 252.8 36.5 V 116 Q 252.8 126 262.8 126" fill="none" stroke="#000" stroke-width="2"/><path d="M 0 126 Q 10 126 10 116 V 99.5 Q 10 89.5 20 89.5" fill="none" stroke="#000" stroke-width="2"/><path d="M 242.8 89.5 Q 252.8 89.5 252.8 99.5 V 116 Q 252.8 126 262.8 126" fill="none" stroke="#000" stroke-width="2"/><path d="M 0 126 Q 10 126 10 136 V 172 Q 10 182 20 182" fill="none" stroke="#000" stroke-width="2"/><path d="M 242.8 182 Q 252.8 182 252.8 172 V 136 Q 252.8 126 262.8 126" fill="none" stroke="#000" stroke-width="2"/><path d="M 0 126 Q 10 126 10 136 V 230 Q 10 240 105.4 240" fill="none" stroke="#000" stroke-width="2"/><path d="M 157.4 240 Q 252.8 240 252.8 230 V 136 Q 252.8 126 262.8 126" fill="none" stroke="#000" stroke-width="2"/><g transform="translate(20,0)"><g transform="translate(26.8,0)"><g class="match"><path d="M 43.6 26.5 L 53.6 26.5" fill="none" stroke="#000" stroke-width="2"/><g transform="translate(0,14.5)"><g class="literal"><rect x="0" y="0" width="43.6" height="24" rx="3" ry="3"/><text x="21.8" y="16.6666666667" font-family="monospace" font-size="14" text-anchor="middle"><tspan class="quote">&#34;</tspan><tspan>25</tspan><tspan class="quote">&#34;</tspan></text></g></g><g transform="translate(53.6,0)"><g class="charset"><rect x="0" y="0" width="115.6" height="53" rx="3" ry="3"/><text x="10" y="14" font-family="monospace" font-size="12" class="charset-label">One of:</text><text x="57.8" y="38" font-family="monospace" font-size="14" text-anchor="middle">&#34;0&#34; - &#34;5&#34;</text></g></g></g></g></g><g transform="translate(20,0)"><g transform="translate(0,63)"><g class="match"><path d="M 35.2 26.5 L 45.2 26.5 M 160.8 26.5 L 170.8 26.5" fill="none" stroke="#000" stroke-width="2"/><g transform="translate(0,14.5)"><g class="literal"><rect x="0" y="0" width="35.2" height="24" rx="3" ry="3"/><text x="17.6" y="16.6666666667" font-family="monospace" font-size="14" text-anchor="middle"><tspan class="quote">&#34;</tspan><tspan>2</tspan><tspan class="quote">&#34;</tspan></text></g></g><g transform="translate(45.2,0)"><g class="charset"><rect x="0" y="0" width="115.6" height="53" rx="3" ry="3"/><text x="10" y="14" font-family="monospace" font-size="12" class="charset-label">One of:</text><text x="57.8" y="38" font-family="monospace" font-size="14" text-anchor="middle">&#34;0&#34; - &#34;4&#34;</text></g></g><g transform="translate(170.8,14.5)"><g class="escape"><rect x="0" y="0" width="52" height="24" rx="3" ry="3"/><text x="26" y="16.6666666667" font-family="monospace" font-size="14" text-anchor="middle">digit</text></g></g></g></g></g><g transform="translate(20,0)"><g transform="translate(0,126)"><g class="match"><path d="M 98.8 56 L 108.8 56 M 160.8 56 L 170.8 56" fill="none" stroke="#000" stroke-width="2"/><g class="repeat"><path d="M 0 56 Q 0 46 10 46 H 88.8 Q 98.8 46 98.8 56" fill="none" stroke="#000" stroke-width="2" class="skip-path"/><g transform="translate(10,20)"><g class="charset"><rect x="0" y="0" width="78.8" height="72" rx="3" ry="3"/><text x="10" y="14" font-family="monospace" font-size="12" class="charset-label">One of:</text><text x="39.4" y="38" font-family="monospace" font-size="14" text-anchor="middle">&#34;0&#34;</text><text x="39.4" y="57" font-family="monospace" font-size="14" text-anchor="middle">&#34;1&#34;</text></g></g><line x1="0" y1="56" x2="10" y2="56" stroke="#000" stroke-width="2"/><line x1="88.8" y1="56" x2="98.8" y2="56" stroke="#000" stroke-width="2"/></g><g transform="translate(108.8,44)"><g class="escape"><rect x="0" y="0" width="52" height="24" rx="3" ry="3"/><text x="26" y="16.6666666667" font-family="monospace" font-size="14" text-anchor="middle">digit</text></g></g><g transform="translate(170.8,44)"><g class="escape"><rect x="0" y="0" width="52" height="24" rx="3" ry="3"/><text x="26" y="16.6666666667" font-family="monospace" font-size="14" text-anchor="middle">digit</text></g></g></g></g></g><g transform="translate(20,0)"><g transform="translate(85.4,228)"><g class="match"><g class="escape"><rect x="0" y="0" width="52" height="24" rx="3" ry="3"/><text x="26" y="16.6666666667" font-family="monospace" font-size="14" text-anchor="middle">digit</text></g></g></g></g></g></g></g></g><g transform="translate(670.8,118)"><g class="repeat"><path d="M 0 56 Q 0 46 10 46 H 189.6 Q 199.6 46 199.6 56" fill="none" stroke="#000" stroke-width="2" class="skip-path"/><g transform="translate(10,20)"><g class="subexp"><rect x="0" y="0" width="179.6" height="92" rx="3" ry="3" fill="none" stroke="#908c83" stroke-width="2"/><text x="10" y="14" font-family="monospace" font-size="12" class="subexp-label">non-capturing group</text><g transform="translate(31.2,24)"><g class="match"><path d="M 35.2 12 L 45.2 12" fill="none" stroke="#000" stroke-width="2"/><g class="literal"><rect x="0" y="0" width="35.2" height="24" rx="3" ry="3"/><text x="17.6" y="16.6666666667" font-family="monospace" font-size="14" text-anchor="middle"><tspan class="quote">&#34;</tspan><tspan>/</tspan><tspan class="quote">&#34;</tspan></text></g><g transform="translate(45.2,0)"><g class="repeat"><path d="M 72 12 Q 72 34 62 34 H 10 Q 0 34 0 12" fill="none" stroke="#000" stroke-width="2" class="loop-path"/><path d="M 41 29 L 36 34 L 41 39" fill="none" stroke="#000" stroke-width="2"/><text x="36" y="48" font-family="monospace" font-size="12" text-anchor="middle" class="repeat-label">1 to 2 times</text><g transform="translate(10,0)"><g class="escape"><rect x="0" y="0" width="52" height="24" rx="3" ry="3"/><text x="26" y="16.6666666667" font-family="monospace" font-size="14" text-anchor="middle">digit</text></g></g><line x1="0" y1="12" x2="10" y2="12" stroke="#000" stroke-width="2"/><line x1="62" y1="12" x2="72" y2="12" stroke="#000" stroke-width="2"/></g></g></g></g></g></g><line x1="0" y1="56" x2="10" y2="56" stroke="#000" stroke-width="2"/><line x1="189.6" y1="56" x2="199.6" y2="56" stroke="#000" stroke-width="2"/></g></g></g></g></svg>