<svg xmlns="http://www.w3.org/2000/svg" width="1026.4" height="271" viewBox="0 0 1026.4 271"><style>
		.literal rect { fill: #ff6b6b; }
		.escape rect { fill: #bada55; }
		.charset rect { fill: #cbcbba; }
		.anchor rect { fill: #6b6659; }
		.any-character rect { fill: #dae9e5; }
		.flags rect { fill: #c8e0f9; }
		.recursive-ref rect { fill: #c9b3ff; }
		.callout rect { fill: #ffd699; }
		.backtrack-control rect { fill: #ffb3a7; }
		.conditional rect { fill: #b3e5fc; }
		.comment rect { fill: #e8e8e8; stroke: #999; stroke-dasharray: 4,2; }
		.comment text { fill: #666; font-style: italic; }
		text { font-family: monospace; font-size: 14px; fill: #000; }
		.anchor text { fill: #fff; }
		.quote { fill: #000; }
		.subexp-label, .charset-label, .flags-label { font-size: 12px; font-style: italic; }
		.repeat-label { fill: #666; font-size: 12px; }
	</style><line x1="5" y1="142.5" x2="10" y2="142.5" stroke="#000" stroke-width="2"/><line x1="1016.4" y1="142.5" x2="1021.4" y2="142.5" stroke="#000" stroke-width="2"/><g transform="translate(10,10)"><g class="match"><path d="M 323.6 132.5 L 333.6 132.5 M 412.4 132.5 L 422.4 132.5 M 643.2 132.5 L 653.2 132.5 M 732 132.5 L 742 132.5" fill="none" stroke="#000" stroke-width="2"/><g transform="translate(0,55.5)"><g class="subexp"><rect x="0" y="0" width="323.6" height="126" rx="3" ry="3" fill="none" stroke="#908c83" stroke-width="2"/><text x="10" y="14" font-family="monospace" font-size="12" class="subexp-label">group #1</text><g transform="translate(10,24)"><g class="match"><path d="M 179.6 53 L 189.6 53 M 241.6 53 L 251.6 53" fill="none" stroke="#000" stroke-width="2"/><g class="subexp"><rect x="0" y="0" width="179.6" height="92" rx="3" ry="3" fill="#cce5ff" stroke="#908c83" stroke-width="2"/><text x="10" y="14" font-family="monospace" font-size="12" class="subexp-label">non-capturing group</text><g transform="translate(48,24)"><g class="regexp"><path d="M 0 29 Q 10 29 10 20.5 V 20.5 Q 10 12 20 12" fill="none" stroke="#000" stroke-width="2"/><path d="M 63.6 12 Q 73.6 12 73.6 20.5 V 20.5 Q 73.6 29 83.6 29" fill="none" stroke="#000" stroke-width="2"/><path d="M 0 29 Q 10 29 10 37.5 V 37.5 Q 10 46 20 46" fill="none" stroke="#000" stroke-width="2"/><path d="M 63.6 46 Q 73.6 46 73.6 37.5 V 37.5 Q 73.6 29 83.6 29" fill="none" stroke="#000" stroke-width="2"/><g transform="translate(20,0)"><g class="match"><g class="literal"><rect x="0" y="0" width="43.6" height="24" rx="3" ry="3"/><text x="21.8" y="16.6666666667" font-family="monospace" font-size="14" text-anchor="middle"><tspan class="quote">&#34;</tspan><tspan>19</tspan><tspan class="quote">&#34;</tspan></text></g></g></g><g transform="translate(20,0)"><g transform="translate(0,34)"><g class="match"><g class="literal"><rect x="0" y="0" width="43.6" height="24" rx="3" ry="3"/><text x="21.8" y="16.6666666667" font-family="monospace" font-size="14" text-anchor="middle"><tspan class="quote">&#34;</tspan><tspan>20</tspan><tspan class="quote">&#34;</tspan></text></g></g></g></g></g></g></g><g transform="translate(189.6,41)"><g class="escape"><rect x="0" y="0" width="52" height="24" rx="3" ry="3"/><text x="26" y="16.6666666667" font-family="monospace" font-size="14" text-anchor="middle">digit</text></g></g><g transform="translate(251.6,41)"><g class="escape"><rect x="0" y="0" width="52" height="24" rx="3" ry="3"/><text x="26" y="16.6666666667" font-family="monospace" font-size="14" text-anchor="middle">digit</text></g></g></g></g></g></g><g transform="translate(333.6,77.5)"><g class="charset"><rect x="0" y="0" width="78.8" height="110" rx="3" ry="3"/><text x="10" y="14" font-family="monospace" font-size="12" class="charset-label">One of:</text><text x="39.4" y="38" font-family="monospace" font-size="14" text-anchor="middle">&#34;-&#34;</text><text x="39.4" y="57" font-family="monospace" font-size="14" text-anchor="middle">&#34; &#34;</text><text x="39.4" y="76" font-family="monospace" font-size="14" text-anchor="middle">&#34;/&#34;</text><text x="39.4" y="95" font-family="monospace" font-size="14" text-anchor="middle">&#34;.&#34;</text></g></g><g transform="translate(422.4,31.5)"><g class="subexp"><rect x="0" y="0" width="220.8" height="188" rx="3" ry="3" fill="none" stroke="#908c83" stroke-width="2"/><text x="10" y="14" font-family="monospace" font-size="12" class="subexp-label">group #2</text><g transform="translate(10,24)"><g class="regexp"><path d="M 0 77 Q 10 77 10 67 V 36.5 Q 10 26.5 20 26.5" fill="none" stroke="#000" stroke-width="2"/><path d="M 180.8 26.5 Q 190.8 26.5 190.8 36.5 V 67 Q 190.8 77 200.8 77" fill="none" stroke="#000" stroke-width="2"/><path d="M 0 77 Q 10 77 10 87 V 98.5 Q 10 108.5 38.4 108.5" fill="none" stroke="#000" stroke-width="2"/><path d="M 162.4 108.5 Q 190.8 108.5 190.8 98.5 V 87 Q 190.8 77 200.8 77" fill="none" stroke="#000" stroke-width="2"/><g transform="translate(20,0)"><g class="match"><path d="M 35.2 26.5 L 45.2 26.5" fill="none" stroke="#000" stroke-width="2"/><g transform="translate(0,14.5)"><g class="literal"><rect x="0" y="0" width="35.2" height="24" rx="3" ry="3"/><text x="17.6" y="16.6666666667" font-family="monospace" font-size="14" text-anchor="middle"><tspan class="quote">&#34;</tspan><tspan>0</tspan><tspan class="quote">&#34;</tspan></text></g></g><g transform="translate(45.2,0)"><g class="charset"><rect x="0" y="0" width="115.6" height="53" rx="3" ry="3"/><text x="10" y="14" font-family="monospace" font-size="12" class="charset-label">One of:</text><text x="57.8" y="38" font-family="monospace" font-size="14" text-anchor="middle">&#34;1&#34; - &#34;9&#34;</text></g></g></g></g><g transform="translate(20,0)"><g transform="translate(18.4,63)"><g class="match"><path d="M 35.2 45.5 L 45.2 45.5" fill="none" stroke="#000" stroke-width="2"/><g transform="translate(0,33.5)"><g class="literal"><rect x="0" y="0" width="35.2" height="24" rx="3" ry="3"/><text x="17.6" y="16.6666666667" font-family="monospace" font-size="14" text-anchor="middle"><tspan class="quote">&#34;</tspan><tspan>1</tspan><tspan class="quote">&#34;</tspan></text></g></g><g transform="translate(45.2,0)"><g class="charset"><rect x="0" y="0" width="78.8" height="91" rx="3" ry="3"/><text x="10" y="14" font-family="monospace" font-size="12" class="charset-label">One of:</text><text x="39.4" y="38" font-family="monospace" font-size="14" text-anchor="middle">&#34;0&#34;</text><text x="39.4" y="57" font-family="monospace" font-size="14" text-anchor="middle">&#34;1&#34;</text><text x="39.4" y="76" font-family="monospace" font-size="14" text-anchor="middle">&#34;2&#34;</text></g></g></g></g></g></g></g></g></g><g transform="translate(653.2,77.5)"><g class="charset"><rect x="0" y="0" width="78.8" height="110" rx="3" ry="3"/><text x="10" y="14" font-family="monospace" font-size="12" class="charset-label">One of:</text><text x="39.4" y="38" font-family="monospace" font-size="14" text-anchor="middle">&#34;-&#34;</text><text x="39.4" y="57" font-family="monospace" font-size="14" text-anchor="middle">&#34; &#34;</text><text x="39.4" y="76" font-family="monospace" font-size="14" text-anchor="middle">&#34;/&#34;</text><text x="39.4" y="95" font-family="monospace" font-size="14" text-anchor="middle">&#34;.&#34;</text></g></g><g transform="translate(742,0)"><g class="subexp"><rect x="0" y="0" width="264.4" height="251" rx="3" ry="3" fill="none" stroke="#908c83" stroke-width="2"/><text x="10" y="14" font-family="monospace" font-size="12" class="subexp-label">group #3</text><g transform="translate(10,24)"><g class="regexp"><path d="M 0 108.5 Q 10 108.5 10 98.5 V 36.5 Q 10 26.5 41.8 26.5" fill="none" stroke="#000" stroke-width="2"/><path d="M 202.6 26.5 Q 234.4 26.5 234.4 36.5 V 98.5 Q 234.4 108.5 244.4 108.5" fill="none" stroke="#000" stroke-width="2"/><path d="M 0 108.5 Q 10 108.5 10 103.75 V 103.75 Q 10 99 20 99" fill="none" stroke="#000" stroke-width="2"/><path d="M 224.4 99 Q 234.4 99 234.4 103.75 V 103.75 Q 234.4 108.5 244.4 108.5" fill="none" stroke="#000" stroke-width="2"/><path d="M 0 108.5 Q 10 108.5 10 118.5 V 171 Q 10 181 60.2 181" fill="none" stroke="#000" stroke-width="2"/><path d="M 184.2 181 Q 234.4 181 234.4 171 V 118.5 Q 234.4 108.5 244.4 108.5" fill="none" stroke="#000" stroke-width="2"/><g transform="translate(20,0)"><g transform="translate(21.8,0)"><g class="match"><path d="M 35.2 26.5 L 45.2 26.5" fill="none" stroke="#000" stroke-width="2"/><g transform="translate(0,14.5)"><g class="literal"><rect x="0" y="0" width="35.2" height="24" rx="3" ry="3"/><text x="17.6" y="16.6666666667" font-family="monospace" font-size="14" text-anchor="middle"><tspan class="quote">&#34;</tspan><tspan>0</tspan><tspan class="quote">&#34;</tspan></text></g></g><g transform="translate(45.2,0)"><g class="charset"><rect x="0" y="0" width="115.6" height="53" rx="3" ry="3"/><text x="10" y="14" font-family="monospace" font-size="12" class="charset-label">One of:</text><text x="57.8" y="38" font-family="monospace" font-size="14" text-anchor="middle">&#34;1&#34; - &#34;9&#34;</text></g></g></g></g></g><g transform="translate(20,0)"><g transform="translate(0,63)"><g class="match"><path d="M 78.8 36 L 88.8 36" fill="none" stroke="#000" stroke-width="2"/><g class="charset"><rect x="0" y="0" width="78.8" height="72" rx="3" ry="3"/><text x="10" y="14" font-family="monospace" font-size="12" class="charset-label">One of:</text><text x="39.4" y="38" font-family="monospace" font-size="14" text-anchor="middle">&#34;1&#34;</text><text x="39.4" y="57" font-family="monospace" font-size="14" text-anchor="middle">&#34;2&#34;</text></g><g transform="translate(88.8,9.5)"><g class="charset"><rect x="0" y="0" width="115.6" height="53" rx="3" ry="3"/><text x="10" y="14" font-family="monospace" font-size="12" class="charset-label">One of:</text><text x="57.8" y="38" font-family="monospace" font-size="14" text-anchor="middle">&#34;0&#34; - &#34;9&#34;</text></g></g></g></g></g><g transform="translate(20,0)"><g transform="translate(40.2,145)"><g class="match"><path d="M 35.2 36 L 45.2 36" fill="none" stroke="#000" stroke-width="2"/><g transform="translate(0,24)"><g class="literal"><rect x="0" y="0" width="35.2" height="24" rx="3" ry="3"/><text x="17.6" y="16.6666666667" font-family="monospace" font-size="14" text-anchor="middle"><tspan class="quote">&#34;</tspan><tspan>3</tspan><tspan class="quote">&#34;</tspan></text></g></g><g transform="translate(45.2,0)"><g class="charset"><rect x="0" y="0" width="78.8" height="72" rx="3" ry="3"/><text x="10" y="14" font-family="monospace" font-size="12" class="charset-label">One of:</text><text x="39.4" y="38" font-family="monospace" font-size="14" text-anchor="middle">&#34;0&#34;</text><text x="39.4" y="57" font-family="monospace" font-size="14" text-anchor="middle">&#34;1&#34;</text></g></g></g></g></g></g></g></g></g></g></g></svg>