<svg xmlns="http://www.w3.org/2000/svg" width="888" height="262" viewBox="0 0 888 262"><defs><marker id="start-arrow" markerWidth="10" markerHeight="7" refX="0" refY="3.5" orient="auto"><polygon points="0 0, 10 3.5, 0 7" fill="#94a3b8"/></marker><marker id="end-dot" markerWidth="8" markerHeight="8" refX="4" refY="4"><circle cx="4" cy="4" r="3" fill="#94a3b8"/></marker></defs><style>
		.literal rect { fill: #3f1d1d; stroke: #ef4444; stroke-width: 1.5; }
		.literal text { fill: #fecaca; }
		.escape rect { fill: #1a3e1f; stroke: #84cc16; stroke-width: 1.5; }
		.escape text { fill: #d9f99d; }
		.charset rect { fill: #3d3a2a; stroke: #a39e8a; stroke-width: 1.5; }
		.charset text { fill: #e7e5e4; }
		.anchor rect { fill: #cbd5e1; stroke: #e2e8f0; stroke-width: 1.5; }
		.anchor text { fill: #0f172a; }
		.any-character rect { fill: #172554; stroke: #3b82f6; stroke-width: 1.5; }
		.any-character text { fill: #bfdbfe; }
		.flags rect { fill: #172554; stroke: #3b82f6; stroke-width: 1.5; }
		.flags text { fill: #bfdbfe; }
		.recursive-ref rect { fill: #2e1065; stroke: #8b5cf6; stroke-width: 1.5; }
		.recursive-ref text { fill: #ddd6fe; }
		.callout rect { fill: #431407; stroke: #f97316; stroke-width: 1.5; }
		.callout text { fill: #fed7aa; }
		.backtrack-control rect { fill: #3f1d1d; stroke: #ef4444; stroke-width: 1.5; }
		.backtrack-control text { fill: #fecaca; }
		.conditional rect { fill: #082f49; stroke: #0ea5e9; stroke-width: 1.5; }
		.conditional text { fill: #bae6fd; }
		.comment rect { fill: #1f2937; stroke: #6b7280; stroke-width: 1.5; stroke-dasharray: 4,2; }
		.comment text { fill: #9ca3af; }
		.comment text { font-style: italic; }
		text { font-family: monospace; font-size: 13px; fill: #e2e8f0; }
		.subexp-label, .charset-label, .flags-label { font-family: system-ui, -apple-system, sans-serif; font-size: 11px; }
		.repeat-label { fill: #94a3b8; font-family: system-ui, -apple-system, sans-serif; font-size: 11px; }
	</style><rect x="0" y="0" width="888" height="262" fill="#000000"/><line x1="5" y1="137.5" x2="25" y2="137.5" stroke="#94a3b8" stroke-width="1.5" marker-start="url(#start-arrow)"/><line x1="867" y1="137.5" x2="880" y2="137.5" stroke="#94a3b8" stroke-width="1.5" marker-end="url(#end-dot)"/><g transform="translate(25,10)"><g class="match"><path d="M 101.2 127.5 L 111.2 127.5 M 180.2 127.5 L 190.2 127.5 M 266.2 127.5 L 276.2 127.5 M 489.8 127.5 L 499.8 127.5 M 575.8 127.5 L 585.8 127.5" fill="none" stroke="#94a3b8" stroke-width="1.5"/><g transform="translate(0,76.5)"><g class="subexp"><rect x="0" y="0" width="101.2" height="89" rx="8" ry="8" fill="none" stroke="#475569" stroke-width="1.5"/><text x="10" y="13" font-family="system-ui, -apple-system, sans-serif" font-size="11" class="subexp-label">group #1</text><g transform="translate(10,23)"><g class="regexp"><path d="M 0 28 Q 10 28 10 19.75 V 19.75 Q 10 11.5 20 11.5" fill="none" stroke="#94a3b8" stroke-width="1.5"/><path d="M 61.2 11.5 Q 71.2 11.5 71.2 19.75 V 19.75 Q 71.2 28 81.2 28" fill="none" stroke="#94a3b8" stroke-width="1.5"/><path d="M 0 28 Q 10 28 10 36.25 V 36.25 Q 10 44.5 20 44.5" fill="none" stroke="#94a3b8" stroke-width="1.5"/><path d="M 61.2 44.5 Q 71.2 44.5 71.2 36.25 V 36.25 Q 71.2 28 81.2 28" fill="none" stroke="#94a3b8" stroke-width="1.5"/><g transform="translate(20,0)"><g class="match"><g class="literal"><rect x="0" y="0" width="41.2" height="23" rx="8" ry="8"/><text x="20.6" y="15.8333333333" font-family="monospace" font-size="13" text-anchor="middle"><tspan class="quote">&#34;</tspan><tspan>19</tspan><tspan class="quote">&#34;</tspan></text></g></g></g><g transform="translate(20,0)"><g transform="translate(0,33)"><g class="match"><g class="literal"><rect x="0" y="0" width="41.2" height="23" rx="8" ry="8"/><text x="20.6" y="15.8333333333" font-family="monospace" font-size="13" text-anchor="middle"><tspan class="quote">&#34;</tspan><tspan>20</tspan><tspan class="quote">&#34;</tspan></text></g></g></g></g></g></g></g></g><g transform="translate(111.2,116)"><g class="repeat"><path d="M 69 11.5 Q 69 33 59 33 H 10 Q 0 33 0 11.5" fill="none" stroke="#94a3b8" stroke-width="1.5" class="loop-path"/><path d="M 39.5 28 L 34.5 33 L 39.5 38" fill="none" stroke="#94a3b8" stroke-width="1.5"/><text x="34.5" y="46" font-family="system-ui, -apple-system, sans-serif" font-size="11" text-anchor="middle" class="repeat-label">2 times</text><g transform="translate(10,0)"><g class="escape"><rect x="0" y="0" width="49" height="23" rx="8" ry="8"/><text x="24.5" y="15.8333333333" font-family="monospace" font-size="13" text-anchor="middle">digit</text></g></g><line x1="0" y1="11.5" x2="10" y2="11.5" stroke="#94a3b8" stroke-width="1.5"/><line x1="59" y1="11.5" x2="69" y2="11.5" stroke="#94a3b8" stroke-width="1.5"/></g></g><g transform="translate(190.2,75)"><g class="charset"><rect x="0" y="0" width="76" height="105" rx="8" ry="8"/><text x="10" y="13" font-family="system-ui, -apple-system, sans-serif" font-size="11" class="charset-label">One of:</text><text x="38" y="36" font-family="monospace" font-size="13" text-anchor="middle">&#34;-&#34;</text><text x="38" y="54" font-family="monospace" font-size="13" text-anchor="middle">&#34;/&#34;</text><text x="38" y="72" font-family="monospace" font-size="13" text-anchor="middle">&#34; &#34;</text><text x="38" y="90" font-family="monospace" font-size="13" text-anchor="middle">&#34;.&#34;</text></g></g><g transform="translate(276.2,48.5)"><g class="subexp"><rect x="0" y="0" width="213.6" height="145" rx="8" ry="8" fill="none" stroke="#475569" stroke-width="1.5"/><text x="10" y="13" font-family="system-ui, -apple-system, sans-serif" font-size="11" class="subexp-label">group #2</text><g transform="translate(10,23)"><g class="regexp"><path d="M 0 56 Q 10 56 10 46 V 35.5 Q 10 25.5 20 25.5" fill="none" stroke="#94a3b8" stroke-width="1.5"/><path d="M 173.6 25.5 Q 183.6 25.5 183.6 35.5 V 46 Q 183.6 56 193.6 56" fill="none" stroke="#94a3b8" stroke-width="1.5"/><path d="M 0 56 Q 10 56 10 66 V 76.5 Q 10 86.5 20 86.5" fill="none" stroke="#94a3b8" stroke-width="1.5"/><path d="M 173.6 86.5 Q 183.6 86.5 183.6 76.5 V 66 Q 183.6 56 193.6 56" fill="none" stroke="#94a3b8" stroke-width="1.5"/><g transform="translate(20,0)"><g class="match"><path d="M 33.4 25.5 L 43.4 25.5" fill="none" stroke="#94a3b8" stroke-width="1.5"/><g transform="translate(0,14)"><g class="literal"><rect x="0" y="0" width="33.4" height="23" rx="8" ry="8"/><text x="16.7" y="15.8333333333" font-family="monospace" font-size="13" text-anchor="middle"><tspan class="quote">&#34;</tspan><tspan>0</tspan><tspan class="quote">&#34;</tspan></text></g></g><g transform="translate(43.4,0)"><g class="charset"><rect x="0" y="0" width="110.2" height="51" rx="8" ry="8"/><text x="10" y="13" font-family="system-ui, -apple-system, sans-serif" font-size="11" class="charset-label">One of:</text><text x="55.1" y="36" font-family="monospace" font-size="13" text-anchor="middle">&#34;1&#34; - &#34;9&#34;</text></g></g></g></g><g transform="translate(20,0)"><g transform="translate(0,61)"><g class="match"><path d="M 33.4 25.5 L 43.4 25.5" fill="none" stroke="#94a3b8" stroke-width="1.5"/><g transform="translate(0,14)"><g class="literal"><rect x="0" y="0" width="33.4" height="23" rx="8" ry="8"/><text x="16.7" y="15.8333333333" font-family="monospace" font-size="13" text-anchor="middle"><tspan class="quote">&#34;</tspan><tspan>1</tspan><tspan class="quote">&#34;</tspan></text></g></g><g transform="translate(43.4,0)"><g class="charset"><rect x="0" y="0" width="110.2" height="51" rx="8" ry="8"/><text x="10" y="13" font-family="system-ui, -apple-system, sans-serif" font-size="11" class="charset-label">One of:</text><text x="55.1" y="36" font-family="monospace" font-size="13" text-anchor="middle">&#34;0&#34; - &#34;2&#34;</text></g></g></g></g></g></g></g></g></g><g transform="translate(499.8,75)"><g class="charset"><rect x="0" y="0" width="76" height="105" rx="8" ry="8"/><text x="10" y="13" font-family="system-ui, -apple-system, sans-serif" font-size="11" class="charset-label">One of:</text><text x="38" y="36" font-family="monospace" font-size="13" text-anchor="middle">&#34;-&#34;</text><text x="38" y="54" font-family="monospace" font-size="13" text-anchor="middle">&#34;/&#34;</text><text x="38" y="72" font-family="monospace" font-size="13" text-anchor="middle">&#34; &#34;</text><text x="38" y="90" font-family="monospace" font-size="13" text-anchor="middle">&#34;.&#34;</text></g></g><g transform="translate(585.8,0)"><g class="subexp"><rect x="0" y="0" width="256.2" height="242" rx="8" ry="8" fill="none" stroke="#475569" stroke-width="1.5"/><text x="10" y="13" font-family="system-ui, -apple-system, sans-serif" font-size="11" class="subexp-label">group #3</text><g transform="translate(10,23)"><g class="regexp"><path d="M 0 104.5 Q 10 104.5 10 94.5 V 35.5 Q 10 25.5 41.3 25.5" fill="none" stroke="#94a3b8" stroke-width="1.5"/><path d="M 194.9 25.5 Q 226.2 25.5 226.2 35.5 V 94.5 Q 226.2 104.5 236.2 104.5" fill="none" stroke="#94a3b8" stroke-width="1.5"/><path d="M 0 104.5 Q 10 104.5 10 100 V 100 Q 10 95.5 20 95.5" fill="none" stroke="#94a3b8" stroke-width="1.5"/><path d="M 216.2 95.5 Q 226.2 95.5 226.2 100 V 100 Q 226.2 104.5 236.2 104.5" fill="none" stroke="#94a3b8" stroke-width="1.5"/><path d="M 0 104.5 Q 10 104.5 10 114.5 V 164.5 Q 10 174.5 58.4 174.5" fill="none" stroke="#94a3b8" stroke-width="1.5"/><path d="M 177.8 174.5 Q 226.2 174.5 226.2 164.5 V 114.5 Q 226.2 104.5 236.2 104.5" fill="none" stroke="#94a3b8" stroke-width="1.5"/><g transform="translate(20,0)"><g transform="translate(21.3,0)"><g class="match"><path d="M 33.4 25.5 L 43.4 25.5" fill="none" stroke="#94a3b8" stroke-width="1.5"/><g transform="translate(0,14)"><g class="literal"><rect x="0" y="0" width="33.4" height="23" rx="8" ry="8"/><text x="16.7" y="15.8333333333" font-family="monospace" font-size="13" text-anchor="middle"><tspan class="quote">&#34;</tspan><tspan>0</tspan><tspan class="quote">&#34;</tspan></text></g></g><g transform="translate(43.4,0)"><g class="charset"><rect x="0" y="0" width="110.2" height="51" rx="8" ry="8"/><text x="10" y="13" font-family="system-ui, -apple-system, sans-serif" font-size="11" class="charset-label">One of:</text><text x="55.1" y="36" font-family="monospace" font-size="13" text-anchor="middle">&#34;1&#34; - &#34;9&#34;</text></g></g></g></g></g><g transform="translate(20,0)"><g transform="translate(0,61)"><g class="match"><path d="M 76 34.5 L 86 34.5" fill="none" stroke="#94a3b8" stroke-width="1.5"/><g class="charset"><rect x="0" y="0" width="76" height="69" rx="8" ry="8"/><text x="10" y="13" font-family="system-ui, -apple-system, sans-serif" font-size="11" class="charset-label">One of:</text><text x="38" y="36" font-family="monospace" font-size="13" text-anchor="middle">&#34;1&#34;</text><text x="38" y="54" font-family="monospace" font-size="13" text-anchor="middle">&#34;2&#34;</text></g><g transform="translate(86,9)"><g class="charset"><rect x="0" y="0" width="110.2" height="51" rx="8" ry="8"/><text x="10" y="13" font-family="system-ui, -apple-system, sans-serif" font-size="11" class="charset-label">One of:</text><text x="55.1" y="36" font-family="monospace" font-size="13" text-anchor="middle">&#34;0&#34; - &#34;9&#34;</text></g></g></g></g></g><g transform="translate(20,0)"><g transform="translate(38.4,140)"><g class="match"><path d="M 33.4 34.5 L 43.4 34.5" fill="none" stroke="#94a3b8" stroke-width="1.5"/><g transform="translate(0,23)"><g class="literal"><rect x="0" y="0" width="33.4" height="23" rx="8" ry="8"/><text x="16.7" y="15.8333333333" font-family="monospace" font-size="13" text-anchor="middle"><tspan class="quote">&#34;</tspan><tspan>3</tspan><tspan class="quote">&#34;</tspan></text></g></g><g transform="translate(43.4,0)"><g class="charset"><rect x="0" y="0" width="76" height="69" rx="8" ry="8"/><text x="10" y="13" font-family="system-ui, -apple-system, sans-serif" font-size="11" class="charset-label">One of:</text><text x="38" y="36" font-family="monospace" font-size="13" text-anchor="middle">&#34;0&#34;</text><text x="38" y="54" font-family="monospace" font-size="13" text-anchor="middle">&#34;1&#34;</text></g></g></g></g></g></g></g></g></g></g></g></svg>