<svg xmlns="http://www.w3.org/2000/svg" width="336.8" height="78" viewBox="0 0 336.8 78"><style>
		.literal rect { fill: #ff6b6b; }
		.escape rect { fill: #bada55; }
		.charset rect { fill: #cbcbba; }
		.anchor rect { fill: #6b6659; }
		.any-character rect { fill: #dae9e5; }
		.flags rect { fill: #c8e0f9; }
		.comment rect { fill: #e8e8e8; stroke: #999; stroke-dasharray: 4,2; }
		.comment text { fill: #666; font-style: italic; }
		text { font-family: monospace; font-size: 14px; fill: #000; }
		.anchor text { fill: #fff; }
		.quote { fill: #000; }
		.subexp-label, .charset-label, .flags-label { font-size: 12px; font-style: italic; }
		.repeat-label { fill: #666; font-size: 12px; }
	</style><line x1="5" y1="22" x2="10" y2="22" stroke="#000" stroke-width="2"/><line x1="326.8" y1="22" x2="331.8" y2="22" stroke="#000" stroke-width="2"/><g transform="translate(10,10)"><g class="match"><path d="M 85.60000000000001 12 L 95.60000000000001 12 M 234.8 12 L 244.8 12" fill="none" stroke="#000" stroke-width="2"/><g class="flags"><rect x="0" y="0" width="85.60000000000001" height="24" rx="3" ry="3"/><text x="42.800000000000004" y="16.666666666666668" font-family="monospace" font-size="14" text-anchor="middle">flags: +i</text></g><g transform="translate(95.60000000000001,0)"><g class="repeat"><path d="M 139.2 12 Q 139.2 34 129.2 34 H 10 Q 0 34 0 12" fill="none" stroke="#000" stroke-width="2" class="loop-path"/><path d="M 74.6 29 L 69.6 34 L 74.6 39" fill="none" stroke="#000" stroke-width="2"/><g transform="translate(10,0)"><g class="escape"><rect x="0" y="0" width="119.2" height="24" rx="3" ry="3"/><text x="59.6" y="16.666666666666668" font-family="monospace" font-size="14" text-anchor="middle">Unicode Alpha</text></g></g><line x1="0" y1="12" x2="10" y2="12" stroke="#000" stroke-width="2"/><line x1="129.2" y1="12" x2="139.2" y2="12" stroke="#000" stroke-width="2"/></g></g><g transform="translate(244.8,0)"><g class="repeat"><path d="M 72 12 Q 72 34 62 34 H 10 Q 0 34 0 12" fill="none" stroke="#000" stroke-width="2" class="loop-path"/><path d="M 41 29 L 36 34 L 41 39" fill="none" stroke="#000" stroke-width="2"/><text x="36" y="48" font-family="monospace" font-size="12" text-anchor="middle" class="repeat-label">2+ times</text><g transform="translate(10,0)"><g class="escape"><rect x="0" y="0" width="52" height="24" rx="3" ry="3"/><text x="26" y="16.666666666666668" font-family="monospace" font-size="14" text-anchor="middle">digit</text></g></g><line x1="0" y1="12" x2="10" y2="12" stroke="#000" stroke-width="2"/><line x1="62" y1="12" x2="72" y2="12" stroke="#000" stroke-width="2"/></g></g></g></g></svg>