<svg xmlns="http://www.w3.org/2000/svg" width="351" height="76" viewBox="0 0 351 76"><defs><marker id="start-arrow" markerWidth="10" markerHeight="7" refX="0" refY="3.5" orient="auto"><polygon points="0 0, 10 3.5, 0 7" fill="#94a3b8"/></marker><marker id="end-dot" markerWidth="8" markerHeight="8" refX="4" refY="4"><circle cx="4" cy="4" r="3" fill="#94a3b8"/></marker></defs><style>
		.literal rect { fill: #3f1d1d; stroke: #ef4444; stroke-width: 1.5; }
		.literal text { fill: #fecaca; }
		.escape rect { fill: #1a3e1f; stroke: #84cc16; stroke-width: 1.5; }
		.escape text { fill: #d9f99d; }
		.charset rect { fill: #3d3a2a; stroke: #a39e8a; stroke-width: 1.5; }
		.charset text { fill: #e7e5e4; }
		.anchor rect { fill: #cbd5e1; stroke: #e2e8f0; stroke-width: 1.5; }
		.anchor text { fill: #0f172a; }
		.any-character rect { fill: #172554; stroke: #3b82f6; stroke-width: 1.5; }
		.any-character text { fill: #bfdbfe; }
		.flags rect { fill: #172554; stroke: #3b82f6; stroke-width: 1.5; }
		.flags text { fill: #bfdbfe; }
		.recursive-ref rect { fill: #2e1065; stroke: #8b5cf6; stroke-width: 1.5; }
		.recursive-ref text { fill: #ddd6fe; }
		.callout rect { fill: #431407; stroke: #f97316; stroke-width: 1.5; }
		.callout text { fill: #fed7aa; }
		.backtrack-control rect { fill: #3f1d1d; stroke: #ef4444; stroke-width: 1.5; }
		.backtrack-control text { fill: #fecaca; }
		.conditional rect { fill: #082f49; stroke: #0ea5e9; stroke-width: 1.5; }
		.conditional text { fill: #bae6fd; }
		.comment rect { fill: #1f2937; stroke: #6b7280; stroke-width: 1.5; stroke-dasharray: 4,2; }
		.comment text { fill: #9ca3af; }
		.comment text { font-style: italic; }
		text { font-family: monospace; font-size: 13px; fill: #e2e8f0; }
		.subexp-label, .charset-label, .flags-label { font-family: system-ui, -apple-system, sans-serif; font-size: 11px; }
		.repeat-label { fill: #94a3b8; font-family: system-ui, -apple-system, sans-serif; font-size: 11px; }
	</style><rect x="0" y="0" width="351" height="76" fill="#000000"/><line x1="5" y1="21.5" x2="25" y2="21.5" stroke="#94a3b8" stroke-width="1.5" marker-start="url(#start-arrow)"/><line x1="330" y1="21.5" x2="343" y2="21.5" stroke="#94a3b8" stroke-width="1.5" marker-end="url(#end-dot)"/><g transform="translate(25,10)"><g class="match"><path d="M 82 11.5 L 92 11.5 M 226 11.5 L 236 11.5" fill="none" stroke="#94a3b8" stroke-width="1.5"/><g class="flags"><rect x="0" y="0" width="82" height="23" rx="8" ry="8"/><text x="41" y="15.1666666667" font-family="system-ui, -apple-system, sans-serif" font-size="11" text-anchor="middle">flags: +i</text></g><g transform="translate(92,0)"><g class="repeat"><path d="M 134 11.5 Q 134 33 124 33 H 10 Q 0 33 0 11.5" fill="none" stroke="#94a3b8" stroke-width="1.5" class="loop-path"/><path d="M 72 28 L 67 33 L 72 38" fill="none" stroke="#94a3b8" stroke-width="1.5"/><g transform="translate(10,0)"><g class="escape"><rect x="0" y="0" width="114" height="23" rx="8" ry="8"/><text x="57" y="15.1666666667" font-family="system-ui, -apple-system, sans-serif" font-size="11" text-anchor="middle">Unicode Alpha</text></g></g><line x1="0" y1="11.5" x2="10" y2="11.5" stroke="#94a3b8" stroke-width="1.5"/><line x1="124" y1="11.5" x2="134" y2="11.5" stroke="#94a3b8" stroke-width="1.5"/></g></g><g transform="translate(236,0)"><g class="repeat"><path d="M 69 11.5 Q 69 33 59 33 H 10 Q 0 33 0 11.5" fill="none" stroke="#94a3b8" stroke-width="1.5" class="loop-path"/><path d="M 39.5 28 L 34.5 33 L 39.5 38" fill="none" stroke="#94a3b8" stroke-width="1.5"/><text x="34.5" y="46" font-family="system-ui, -apple-system, sans-serif" font-size="11" text-anchor="middle" class="repeat-label">2+ times</text><g transform="translate(10,0)"><g class="escape"><rect x="0" y="0" width="49" height="23" rx="8" ry="8"/><text x="24.5" y="15.8333333333" font-family="monospace" font-size="13" text-anchor="middle">digit</text></g></g><line x1="0" y1="11.5" x2="10" y2="11.5" stroke="#94a3b8" stroke-width="1.5"/><line x1="59" y1="11.5" x2="69" y2="11.5" stroke="#94a3b8" stroke-width="1.5"/></g></g></g></g></svg>