<svg xmlns="http://www.w3.org/2000/svg" width="532.8000000000001" height="111" viewBox="0 0 532.8000000000001 111"><style>
		.literal rect { fill: #ff6b6b; }
		.escape rect { fill: #bada55; }
		.charset rect { fill: #cbcbba; }
		.anchor rect { fill: #6b6659; }
		.any-character rect { fill: #dae9e5; }
		.flags rect { fill: #c8e0f9; }
		.comment rect { fill: #e8e8e8; stroke: #999; stroke-dasharray: 4,2; }
		.comment text { fill: #666; font-style: italic; }
		text { font-family: monospace; font-size: 14px; fill: #000; }
		.anchor text { fill: #fff; }
		.quote { fill: #000; }
		.subexp-label, .charset-label, .flags-label { font-size: 12px; font-style: italic; }
		.repeat-label { fill: #666; font-size: 12px; }
	</style><line x1="5" y1="55.5" x2="10" y2="55.5" stroke="#000" stroke-width="2"/><line x1="522.8000000000001" y1="55.5" x2="527.8000000000001" y2="55.5" stroke="#000" stroke-width="2"/><g transform="translate(10,10)"><g class="match"><path d="M 115.60000000000001 45.5 L 125.60000000000001 45.5 M 202.8 45.5 L 212.8 45.5 M 291.6 45.5 L 301.6 45.5 M 417.20000000000005 45.5 L 427.20000000000005 45.5" fill="none" stroke="#000" stroke-width="2"/><g class="charset"><rect x="0" y="0" width="115.60000000000001" height="91" rx="3" ry="3"/><text x="10" y="14" font-family="monospace" font-size="12" class="charset-label">One of:</text><text x="57.800000000000004" y="38" font-family="monospace" font-size="14" text-anchor="middle">&#34;A&#34; - &#34;F&#34;</text><text x="57.800000000000004" y="57" font-family="monospace" font-size="14" text-anchor="middle">&#34;a&#34; - &#34;f&#34;</text><text x="57.800000000000004" y="76" font-family="monospace" font-size="14" text-anchor="middle">&#34;d&#34;</text></g><g transform="translate(125.60000000000001,33.5)"><g class="literal"><rect x="0" y="0" width="77.2" height="24" rx="3" ry="3"/><text x="38.6" y="16.666666666666668" font-family="monospace" font-size="14" text-anchor="middle"><tspan class="quote">&#34;</tspan><tspan>{2}(?:</tspan><tspan class="quote">&#34;</tspan></text></g></g><g transform="translate(212.8,9.5)"><g class="charset"><rect x="0" y="0" width="78.80000000000001" height="72" rx="3" ry="3"/><text x="10" y="14" font-family="monospace" font-size="12" class="charset-label">One of:</text><text x="39.400000000000006" y="38" font-family="monospace" font-size="14" text-anchor="middle">&#34;:&#34;</text><text x="39.400000000000006" y="57" font-family="monospace" font-size="14" text-anchor="middle">&#34;-&#34;</text></g></g><g transform="translate(301.6,0)"><g class="charset"><rect x="0" y="0" width="115.60000000000001" height="91" rx="3" ry="3"/><text x="10" y="14" font-family="monospace" font-size="12" class="charset-label">One of:</text><text x="57.800000000000004" y="38" font-family="monospace" font-size="14" text-anchor="middle">&#34;A&#34; - &#34;F&#34;</text><text x="57.800000000000004" y="57" font-family="monospace" font-size="14" text-anchor="middle">&#34;a&#34; - &#34;f&#34;</text><text x="57.800000000000004" y="76" font-family="monospace" font-size="14" text-anchor="middle">&#34;d&#34;</text></g></g><g transform="translate(427.20000000000005,33.5)"><g class="literal"><rect x="0" y="0" width="85.60000000000001" height="24" rx="3" ry="3"/><text x="42.800000000000004" y="16.666666666666668" font-family="monospace" font-size="14" text-anchor="middle"><tspan class="quote">&#34;</tspan><tspan>{2}){5}</tspan><tspan class="quote">&#34;</tspan></text></g></g></g></g></svg>