<svg xmlns="http://www.w3.org/2000/svg" width="430" height="213" viewBox="0 0 430 213"><style>
		.literal rect { fill: #ff6b6b; }
		.escape rect { fill: #bada55; }
		.charset rect { fill: #cbcbba; }
		.anchor rect { fill: #6b6659; }
		.any-character rect { fill: #dae9e5; }
		.flags rect { fill: #c8e0f9; }
		.recursive-ref rect { fill: #c9b3ff; }
		.callout rect { fill: #ffd699; }
		.backtrack-control rect { fill: #ffb3a7; }
		.conditional rect { fill: #b3e5fc; }
		.comment rect { fill: #e8e8e8; stroke: #999; stroke-dasharray: 4,2; }
		.comment text { fill: #666; font-style: italic; }
		text { font-family: monospace; font-size: 14px; fill: #000; }
		.anchor text { fill: #fff; }
		.quote { fill: #000; }
		.subexp-label, .charset-label, .flags-label { font-size: 12px; font-style: italic; }
		.repeat-label { fill: #666; font-size: 12px; }
	</style><line x1="5" y1="79.5" x2="10" y2="79.5" stroke="#000" stroke-width="2"/><line x1="420" y1="79.5" x2="425" y2="79.5" stroke="#000" stroke-width="2"/><g transform="translate(10,10)"><g class="match"><path d="M 135.6 69.5 L 145.6 69.5" fill="none" stroke="#000" stroke-width="2"/><g transform="translate(0,24)"><g class="repeat"><path d="M 135.6 45.5 Q 135.6 101 125.6 101 H 10 Q 0 101 0 45.5" fill="none" stroke="#000" stroke-width="2" class="loop-path"/><path d="M 72.8 96 L 67.8 101 L 72.8 106" fill="none" stroke="#000" stroke-width="2"/><text x="67.8" y="115" font-family="monospace" font-size="12" text-anchor="middle" class="repeat-label">2 times</text><g transform="translate(10,0)"><g class="charset"><rect x="0" y="0" width="115.6" height="91" rx="3" ry="3"/><text x="10" y="14" font-family="monospace" font-size="12" class="charset-label">One of:</text><text x="57.8" y="38" font-family="monospace" font-size="14" text-anchor="middle">&#34;A&#34; - &#34;F&#34;</text><text x="57.8" y="57" font-family="monospace" font-size="14" text-anchor="middle">&#34;a&#34; - &#34;f&#34;</text><text x="57.8" y="76" font-family="monospace" font-size="14" text-anchor="middle">digit</text></g></g><line x1="0" y1="45.5" x2="10" y2="45.5" stroke="#000" stroke-width="2"/><line x1="125.6" y1="45.5" x2="135.6" y2="45.5" stroke="#000" stroke-width="2"/></g></g><g transform="translate(145.6,0)"><g class="repeat"><path d="M 264.4 69.5 Q 264.4 169 254.4 169 H 10 Q 0 169 0 69.5" fill="none" stroke="#000" stroke-width="2" class="loop-path"/><path d="M 137.2 164 L 132.2 169 L 137.2 174" fill="none" stroke="#000" stroke-width="2"/><text x="132.2" y="183" font-family="monospace" font-size="12" text-anchor="middle" class="repeat-label">5 times</text><g transform="translate(10,0)"><g class="subexp"><rect x="0" y="0" width="244.4" height="159" rx="3" ry="3" fill="none" stroke="#908c83" stroke-width="2"/><text x="10" y="14" font-family="monospace" font-size="12" class="subexp-label">non-capturing group</text><g transform="translate(10,24)"><g class="match"><path d="M 78.8 45.5 L 88.8 45.5" fill="none" stroke="#000" stroke-width="2"/><g transform="translate(0,9.5)"><g class="charset"><rect x="0" y="0" width="78.8" height="72" rx="3" ry="3"/><text x="10" y="14" font-family="monospace" font-size="12" class="charset-label">One of:</text><text x="39.4" y="38" font-family="monospace" font-size="14" text-anchor="middle">&#34;:&#34;</text><text x="39.4" y="57" font-family="monospace" font-size="14" text-anchor="middle">&#34;-&#34;</text></g></g><g transform="translate(88.8,0)"><g class="repeat"><path d="M 135.6 45.5 Q 135.6 101 125.6 101 H 10 Q 0 101 0 45.5" fill="none" stroke="#000" stroke-width="2" class="loop-path"/><path d="M 72.8 96 L 67.8 101 L 72.8 106" fill="none" stroke="#000" stroke-width="2"/><text x="67.8" y="115" font-family="monospace" font-size="12" text-anchor="middle" class="repeat-label">2 times</text><g transform="translate(10,0)"><g class="charset"><rect x="0" y="0" width="115.6" height="91" rx="3" ry="3"/><text x="10" y="14" font-family="monospace" font-size="12" class="charset-label">One of:</text><text x="57.8" y="38" font-family="monospace" font-size="14" text-anchor="middle">&#34;A&#34; - &#34;F&#34;</text><text x="57.8" y="57" font-family="monospace" font-size="14" text-anchor="middle">&#34;a&#34; - &#34;f&#34;</text><text x="57.8" y="76" font-family="monospace" font-size="14" text-anchor="middle">digit</text></g></g><line x1="0" y1="45.5" x2="10" y2="45.5" stroke="#000" stroke-width="2"/><line x1="125.6" y1="45.5" x2="135.6" y2="45.5" stroke="#000" stroke-width="2"/></g></g></g></g></g></g><line x1="0" y1="69.5" x2="10" y2="69.5" stroke="#000" stroke-width="2"/><line x1="254.4" y1="69.5" x2="264.4" y2="69.5" stroke="#000" stroke-width="2"/></g></g></g></g></svg>