<svg xmlns="http://www.w3.org/2000/svg" width="606.2" height="107" viewBox="0 0 606.2 107"><defs><marker id="start-arrow" markerWidth="10" markerHeight="7" refX="0" refY="3.5" orient="auto"><polygon points="0 0, 10 3.5, 0 7" fill="#94a3b8"/></marker><marker id="end-dot" markerWidth="8" markerHeight="8" refX="4" refY="4"><circle cx="4" cy="4" r="3" fill="#94a3b8"/></marker></defs><style>
		.literal rect { fill: #3f1d1d; stroke: #ef4444; stroke-width: 1.5; }
		.literal text { fill: #fecaca; }
		.escape rect { fill: #1a3e1f; stroke: #84cc16; stroke-width: 1.5; }
		.escape text { fill: #d9f99d; }
		.charset rect { fill: #3d3a2a; stroke: #a39e8a; stroke-width: 1.5; }
		.charset text { fill: #e7e5e4; }
		.anchor rect { fill: #cbd5e1; stroke: #e2e8f0; stroke-width: 1.5; }
		.anchor text { fill: #0f172a; }
		.any-character rect { fill: #172554; stroke: #3b82f6; stroke-width: 1.5; }
		.any-character text { fill: #bfdbfe; }
		.flags rect { fill: #172554; stroke: #3b82f6; stroke-width: 1.5; }
		.flags text { fill: #bfdbfe; }
		.recursive-ref rect { fill: #2e1065; stroke: #8b5cf6; stroke-width: 1.5; }
		.recursive-ref text { fill: #ddd6fe; }
		.callout rect { fill: #431407; stroke: #f97316; stroke-width: 1.5; }
		.callout text { fill: #fed7aa; }
		.backtrack-control rect { fill: #3f1d1d; stroke: #ef4444; stroke-width: 1.5; }
		.backtrack-control text { fill: #fecaca; }
		.conditional rect { fill: #082f49; stroke: #0ea5e9; stroke-width: 1.5; }
		.conditional text { fill: #bae6fd; }
		.comment rect { fill: #1f2937; stroke: #6b7280; stroke-width: 1.5; stroke-dasharray: 4,2; }
		.comment text { fill: #9ca3af; }
		.comment text { font-style: italic; }
		text { font-family: monospace; font-size: 13px; fill: #e2e8f0; }
		.subexp-label, .charset-label, .flags-label { font-family: system-ui, -apple-system, sans-serif; font-size: 11px; }
		.repeat-label { fill: #94a3b8; font-family: system-ui, -apple-system, sans-serif; font-size: 11px; }
	</style><rect x="0" y="0" width="606.2" height="107" fill="#000000"/><line x1="5" y1="53.5" x2="25" y2="53.5" stroke="#94a3b8" stroke-width="1.5" marker-start="url(#start-arrow)"/><line x1="585.2" y1="53.5" x2="598.2" y2="53.5" stroke="#94a3b8" stroke-width="1.5" marker-end="url(#end-dot)"/><g transform="translate(25,10)"><g class="match"><path d="M 33.4 43.5 L 43.4 43.5 M 153.6 43.5 L 163.6 43.5 M 212.6 43.5 L 222.6 43.5 M 298.6 43.5 L 308.6 43.5 M 373.2 43.5 L 383.2 43.5 M 493.4 43.5 L 503.4 43.5" fill="none" stroke="#94a3b8" stroke-width="1.5"/><g transform="translate(0,32)"><g class="literal"><rect x="0" y="0" width="33.4" height="23" rx="8" ry="8"/><text x="16.7" y="15.8333333333" font-family="monospace" font-size="13" text-anchor="middle"><tspan class="quote">&#34;</tspan><tspan>(</tspan><tspan class="quote">&#34;</tspan></text></g></g><g transform="translate(43.4,0)"><g class="charset"><rect x="0" y="0" width="110.2" height="87" rx="8" ry="8"/><text x="10" y="13" font-family="system-ui, -apple-system, sans-serif" font-size="11" class="charset-label">One of:</text><text x="55.1" y="36" font-family="monospace" font-size="13" text-anchor="middle">&#34;0&#34; - &#34;9&#34;</text><text x="55.1" y="54" font-family="monospace" font-size="13" text-anchor="middle">&#34;A&#34; - &#34;F&#34;</text><text x="55.1" y="72" font-family="monospace" font-size="13" text-anchor="middle">&#34;a&#34; - &#34;f&#34;</text></g></g><g transform="translate(163.6,32)"><g class="literal"><rect x="0" y="0" width="49" height="23" rx="8" ry="8"/><text x="24.5" y="15.8333333333" font-family="monospace" font-size="13" text-anchor="middle"><tspan class="quote">&#34;</tspan><tspan>{2}</tspan><tspan class="quote">&#34;</tspan></text></g></g><g transform="translate(222.6,9)"><g class="charset"><rect x="0" y="0" width="76" height="69" rx="8" ry="8"/><text x="10" y="13" font-family="system-ui, -apple-system, sans-serif" font-size="11" class="charset-label">One of:</text><text x="38" y="36" font-family="monospace" font-size="13" text-anchor="middle">&#34;:&#34;</text><text x="38" y="54" font-family="monospace" font-size="13" text-anchor="middle">&#34;-&#34;</text></g></g><g transform="translate(308.6,32)"><g class="literal"><rect x="0" y="0" width="64.6" height="23" rx="8" ry="8"/><text x="32.3" y="15.8333333333" font-family="monospace" font-size="13" text-anchor="middle"><tspan class="quote">&#34;</tspan><tspan>){5}(</tspan><tspan class="quote">&#34;</tspan></text></g></g><g transform="translate(383.2,0)"><g class="charset"><rect x="0" y="0" width="110.2" height="87" rx="8" ry="8"/><text x="10" y="13" font-family="system-ui, -apple-system, sans-serif" font-size="11" class="charset-label">One of:</text><text x="55.1" y="36" font-family="monospace" font-size="13" text-anchor="middle">&#34;0&#34; - &#34;9&#34;</text><text x="55.1" y="54" font-family="monospace" font-size="13" text-anchor="middle">&#34;A&#34; - &#34;F&#34;</text><text x="55.1" y="72" font-family="monospace" font-size="13" text-anchor="middle">&#34;a&#34; - &#34;f&#34;</text></g></g><g transform="translate(503.4,32)"><g class="literal"><rect x="0" y="0" width="56.8" height="23" rx="8" ry="8"/><text x="28.4" y="15.8333333333" font-family="monospace" font-size="13" text-anchor="middle"><tspan class="quote">&#34;</tspan><tspan>{2})</tspan><tspan class="quote">&#34;</tspan></text></g></g></g></g></svg>