<svg xmlns="http://www.w3.org/2000/svg" width="442.4" height="206" viewBox="0 0 442.4 206"><defs><marker id="start-arrow" markerWidth="10" markerHeight="7" refX="0" refY="3.5" orient="auto"><polygon points="0 0, 10 3.5, 0 7" fill="#64748b"/></marker><marker id="end-dot" markerWidth="8" markerHeight="8" refX="4" refY="4"><circle cx="4" cy="4" r="3" fill="#64748b"/></marker></defs><style>
		.literal rect { fill: #fee2e2; stroke: #ef4444; stroke-width: 1.5; }
		.literal text { fill: #991b1b; }
		.escape rect { fill: #ecfccb; stroke: #84cc16; stroke-width: 1.5; }
		.escape text { fill: #365314; }
		.charset rect { fill: #f5f0e1; stroke: #a39e8a; stroke-width: 1.5; }
		.charset text { fill: #57534e; }
		.anchor rect { fill: #334155; stroke: #1e293b; stroke-width: 1.5; }
		.anchor text { fill: #e2e8f0; }
		.any-character rect { fill: #dbeafe; stroke: #3b82f6; stroke-width: 1.5; }
		.any-character text { fill: #1e3a5f; }
		.flags rect { fill: #dbeafe; stroke: #3b82f6; stroke-width: 1.5; }
		.flags text { fill: #1e3a5f; }
		.recursive-ref rect { fill: #ede9fe; stroke: #8b5cf6; stroke-width: 1.5; }
		.recursive-ref text { fill: #4c1d95; }
		.callout rect { fill: #fff7ed; stroke: #f97316; stroke-width: 1.5; }
		.callout text { fill: #7c2d12; }
		.backtrack-control rect { fill: #fee2e2; stroke: #ef4444; stroke-width: 1.5; }
		.backtrack-control text { fill: #991b1b; }
		.conditional rect { fill: #e0f2fe; stroke: #0ea5e9; stroke-width: 1.5; }
		.conditional text { fill: #0c4a6e; }
		.comment rect { fill: #f3f4f6; stroke: #9ca3af; stroke-width: 1.5; stroke-dasharray: 4,2; }
		.comment text { fill: #6b7280; }
		.comment text { font-style: italic; }
		text { font-family: monospace; font-size: 13px; fill: #000; }
		.subexp-label, .charset-label, .flags-label { font-family: system-ui, -apple-system, sans-serif; font-size: 11px; }
		.repeat-label { fill: #64748b; font-family: system-ui, -apple-system, sans-serif; font-size: 11px; }
	</style><line x1="5" y1="76.5" x2="25" y2="76.5" stroke="#64748b" stroke-width="1.5" marker-start="url(#start-arrow)"/><line x1="421.4" y1="76.5" x2="434.4" y2="76.5" stroke="#64748b" stroke-width="1.5" marker-end="url(#end-dot)"/><g transform="translate(25,10)"><g class="match"><path d="M 130.2 66.5 L 140.2 66.5" fill="none" stroke="#64748b" stroke-width="1.5"/><g transform="translate(0,23)"><g class="repeat"><path d="M 130.2 43.5 Q 130.2 97 120.2 97 H 10 Q 0 97 0 43.5" fill="none" stroke="#64748b" stroke-width="1.5" class="loop-path"/><path d="M 70.1 92 L 65.1 97 L 70.1 102" fill="none" stroke="#64748b" stroke-width="1.5"/><text x="65.1" y="110" font-family="system-ui, -apple-system, sans-serif" font-size="11" text-anchor="middle" class="repeat-label">2 times</text><g transform="translate(10,0)"><g class="charset"><rect x="0" y="0" width="110.2" height="87" rx="8" ry="8"/><text x="10" y="13" font-family="system-ui, -apple-system, sans-serif" font-size="11" class="charset-label">One of:</text><text x="55.1" y="36" font-family="monospace" font-size="13" text-anchor="middle">&#34;A&#34; - &#34;F&#34;</text><text x="55.1" y="54" font-family="monospace" font-size="13" text-anchor="middle">&#34;a&#34; - &#34;f&#34;</text><text x="55.1" y="72" font-family="monospace" font-size="13" text-anchor="middle">digit</text></g></g><line x1="0" y1="43.5" x2="10" y2="43.5" stroke="#64748b" stroke-width="1.5"/><line x1="120.2" y1="43.5" x2="130.2" y2="43.5" stroke="#64748b" stroke-width="1.5"/></g></g><g transform="translate(140.2,0)"><g class="repeat"><path d="M 256.2 66.5 Q 256.2 163 246.2 163 H 10 Q 0 163 0 66.5" fill="none" stroke="#64748b" stroke-width="1.5" class="loop-path"/><path d="M 133.1 158 L 128.1 163 L 133.1 168" fill="none" stroke="#64748b" stroke-width="1.5"/><text x="128.1" y="176" font-family="system-ui, -apple-system, sans-serif" font-size="11" text-anchor="middle" class="repeat-label">5 times</text><g transform="translate(10,0)"><g class="subexp"><rect x="0" y="0" width="236.2" height="153" rx="8" ry="8" fill="none" stroke="#908c83" stroke-width="1.5"/><text x="10" y="13" font-family="system-ui, -apple-system, sans-serif" font-size="11" class="subexp-label">non-capturing group</text><g transform="translate(10,23)"><g class="match"><path d="M 76 43.5 L 86 43.5" fill="none" stroke="#64748b" stroke-width="1.5"/><g transform="translate(0,9)"><g class="charset"><rect x="0" y="0" width="76" height="69" rx="8" ry="8"/><text x="10" y="13" font-family="system-ui, -apple-system, sans-serif" font-size="11" class="charset-label">One of:</text><text x="38" y="36" font-family="monospace" font-size="13" text-anchor="middle">&#34;:&#34;</text><text x="38" y="54" font-family="monospace" font-size="13" text-anchor="middle">&#34;-&#34;</text></g></g><g transform="translate(86,0)"><g class="repeat"><path d="M 130.2 43.5 Q 130.2 97 120.2 97 H 10 Q 0 97 0 43.5" fill="none" stroke="#64748b" stroke-width="1.5" class="loop-path"/><path d="M 70.1 92 L 65.1 97 L 70.1 102" fill="none" stroke="#64748b" stroke-width="1.5"/><text x="65.1" y="110" font-family="system-ui, -apple-system, sans-serif" font-size="11" text-anchor="middle" class="repeat-label">2 times</text><g transform="translate(10,0)"><g class="charset"><rect x="0" y="0" width="110.2" height="87" rx="8" ry="8"/><text x="10" y="13" font-family="system-ui, -apple-system, sans-serif" font-size="11" class="charset-label">One of:</text><text x="55.1" y="36" font-family="monospace" font-size="13" text-anchor="middle">&#34;A&#34; - &#34;F&#34;</text><text x="55.1" y="54" font-family="monospace" font-size="13" text-anchor="middle">&#34;a&#34; - &#34;f&#34;</text><text x="55.1" y="72" font-family="monospace" font-size="13" text-anchor="middle">digit</text></g></g><line x1="0" y1="43.5" x2="10" y2="43.5" stroke="#64748b" stroke-width="1.5"/><line x1="120.2" y1="43.5" x2="130.2" y2="43.5" stroke="#64748b" stroke-width="1.5"/></g></g></g></g></g></g><line x1="0" y1="66.5" x2="10" y2="66.5" stroke="#64748b" stroke-width="1.5"/><line x1="246.2" y1="66.5" x2="256.2" y2="66.5" stroke="#64748b" stroke-width="1.5"/></g></g></g></g></svg>