<svg xmlns="http://www.w3.org/2000/svg" width="691.2" height="105" viewBox="0 0 691.2 105"><defs><marker id="start-arrow" markerWidth="10" markerHeight="7" refX="0" refY="3.5" orient="auto"><polygon points="0 0, 10 3.5, 0 7" fill="#94a3b8"/></marker><marker id="end-dot" markerWidth="8" markerHeight="8" refX="4" refY="4"><circle cx="4" cy="4" r="3" fill="#94a3b8"/></marker></defs><style>
		.literal rect { fill: #3f1d1d; stroke: #ef4444; stroke-width: 1.5; }
		.literal text { fill: #fecaca; }
		.escape rect { fill: #1a3e1f; stroke: #84cc16; stroke-width: 1.5; }
		.escape text { fill: #d9f99d; }
		.charset rect { fill: #3d3a2a; stroke: #a39e8a; stroke-width: 1.5; }
		.charset text { fill: #e7e5e4; }
		.anchor rect { fill: #cbd5e1; stroke: #e2e8f0; stroke-width: 1.5; }
		.anchor text { fill: #0f172a; }
		.any-character rect { fill: #172554; stroke: #3b82f6; stroke-width: 1.5; }
		.any-character text { fill: #bfdbfe; }
		.flags rect { fill: #172554; stroke: #3b82f6; stroke-width: 1.5; }
		.flags text { fill: #bfdbfe; }
		.recursive-ref rect { fill: #2e1065; stroke: #8b5cf6; stroke-width: 1.5; }
		.recursive-ref text { fill: #ddd6fe; }
		.callout rect { fill: #431407; stroke: #f97316; stroke-width: 1.5; }
		.callout text { fill: #fed7aa; }
		.backtrack-control rect { fill: #3f1d1d; stroke: #ef4444; stroke-width: 1.5; }
		.backtrack-control text { fill: #fecaca; }
		.conditional rect { fill: #082f49; stroke: #0ea5e9; stroke-width: 1.5; }
		.conditional text { fill: #bae6fd; }
		.comment rect { fill: #1f2937; stroke: #6b7280; stroke-width: 1.5; stroke-dasharray: 4,2; }
		.comment text { fill: #9ca3af; }
		.comment text { font-style: italic; }
		text { font-family: monospace; font-size: 13px; fill: #e2e8f0; }
		.subexp-label, .charset-label, .flags-label { font-family: system-ui, -apple-system, sans-serif; font-size: 11px; }
		.repeat-label { fill: #94a3b8; font-family: system-ui, -apple-system, sans-serif; font-size: 11px; }
	</style><rect x="0" y="0" width="691.2" height="105" fill="#000000"/><line x1="5" y1="52.5" x2="25" y2="52.5" stroke="#94a3b8" stroke-width="1.5" marker-start="url(#start-arrow)"/><line x1="670.2" y1="52.5" x2="683.2" y2="52.5" stroke="#94a3b8" stroke-width="1.5" marker-end="url(#end-dot)"/><g transform="translate(25,10)"><g class="regexp"><path d="M 0 42.5 Q 10 42.5 10 32.5 V 21.5 Q 10 11.5 233.6 11.5" fill="none" stroke="#94a3b8" stroke-width="1.5"/><path d="M 411.6 11.5 Q 635.2 11.5 635.2 21.5 V 32.5 Q 635.2 42.5 645.2 42.5" fill="none" stroke="#94a3b8" stroke-width="1.5"/><path d="M 0 42.5 Q 10 42.5 10 48 V 48 Q 10 53.5 20 53.5" fill="none" stroke="#94a3b8" stroke-width="1.5"/><path d="M 625.2 53.5 Q 635.2 53.5 635.2 48 V 48 Q 635.2 42.5 645.2 42.5" fill="none" stroke="#94a3b8" stroke-width="1.5"/><g transform="translate(20,0)"><g transform="translate(213.6,0)"><g class="match"><g class="recursive-ref"><rect x="0" y="0" width="178" height="23" rx="8" ry="8"/><text x="89" y="15.1666666667" font-family="system-ui, -apple-system, sans-serif" font-size="11" text-anchor="middle">recurse whole pattern</text></g></g></g></g><g transform="translate(20,0)"><g transform="translate(0,33)"><g class="match"><path d="M 98 20.5 L 108 20.5 M 240 20.5 L 250 20.5 M 311.2 20.5 L 321.2 20.5 M 453.2 20.5 L 463.2 20.5 M 505.2 20.5 L 515.2 20.5" fill="none" stroke="#94a3b8" stroke-width="1.5"/><g transform="translate(0,9)"><g class="callout"><rect x="0" y="0" width="98" height="23" rx="8" ry="8"/><text x="49" y="15.1666666667" font-family="system-ui, -apple-system, sans-serif" font-size="11" text-anchor="middle">callout (1)</text></g></g><g transform="translate(108,0)"><g class="anchor"><rect x="0" y="0" width="132" height="41" rx="14" ry="14"/><text x="66" y="24.1666666667" font-family="system-ui, -apple-system, sans-serif" font-size="11" text-anchor="middle">Word boundary</text></g></g><g transform="translate(250,9)"><g class="repeat"><path d="M 61.2 11.5 Q 61.2 33 51.2 33 H 10 Q 0 33 0 11.5" fill="none" stroke="#94a3b8" stroke-width="1.5" class="loop-path"/><path d="M 35.6 28 L 30.6 33 L 35.6 38" fill="none" stroke="#94a3b8" stroke-width="1.5"/><g transform="translate(10,0)"><g class="escape"><rect x="0" y="0" width="41.2" height="23" rx="8" ry="8"/><text x="20.6" y="15.8333333333" font-family="monospace" font-size="13" text-anchor="middle">word</text></g></g><line x1="0" y1="11.5" x2="10" y2="11.5" stroke="#94a3b8" stroke-width="1.5"/><line x1="51.2" y1="11.5" x2="61.2" y2="11.5" stroke="#94a3b8" stroke-width="1.5"/></g></g><g transform="translate(321.2,0)"><g class="anchor"><rect x="0" y="0" width="132" height="41" rx="14" ry="14"/><text x="66" y="24.1666666667" font-family="system-ui, -apple-system, sans-serif" font-size="11" text-anchor="middle">Word boundary</text></g></g><g transform="translate(463.2,9)"><g class="backtrack-control"><rect x="0" y="0" width="42" height="23" rx="8" ry="8"/><text x="21" y="15.1666666667" font-family="system-ui, -apple-system, sans-serif" font-size="11" text-anchor="middle">skip</text></g></g><g transform="translate(515.2,9)"><g class="backtrack-control"><rect x="0" y="0" width="90" height="23" rx="8" ry="8"/><text x="45" y="15.1666666667" font-family="system-ui, -apple-system, sans-serif" font-size="11" text-anchor="middle">force fail</text></g></g></g></g></g></g></g></svg>