<svg xmlns="http://www.w3.org/2000/svg" width="652" height="98" viewBox="0 0 652 98"><style>
		.literal rect { fill: #ff6b6b; }
		.escape rect { fill: #bada55; }
		.charset rect { fill: #cbcbba; }
		.anchor rect { fill: #6b6659; }
		.any-character rect { fill: #dae9e5; }
		.flags rect { fill: #c8e0f9; }
		.recursive-ref rect { fill: #c9b3ff; }
		.callout rect { fill: #ffd699; }
		.backtrack-control rect { fill: #ffb3a7; }
		.conditional rect { fill: #b3e5fc; }
		.comment rect { fill: #e8e8e8; stroke: #999; stroke-dasharray: 4,2; }
		.comment text { fill: #666; font-style: italic; }
		text { font-family: monospace; font-size: 14px; fill: #000; }
		.anchor text { fill: #fff; }
		.quote { fill: #000; }
		.subexp-label, .charset-label, .flags-label { font-size: 12px; font-style: italic; }
		.repeat-label { fill: #666; font-size: 12px; }
	</style><line x1="5" y1="49" x2="10" y2="49" stroke="#000" stroke-width="2"/><line x1="642" y1="49" x2="647" y2="49" stroke="#000" stroke-width="2"/><g transform="translate(10,10)"><g class="regexp"><path d="M 0 39 Q 10 39 10 29 V 22 Q 10 12 222.8 12" fill="none" stroke="#000" stroke-width="2"/><path d="M 409.20000000000005 12 Q 622 12 622 22 V 29 Q 622 39 632 39" fill="none" stroke="#000" stroke-width="2"/><path d="M 0 39 Q 10 39 10 42.5 V 42.5 Q 10 46 20 46" fill="none" stroke="#000" stroke-width="2"/><path d="M 612 46 Q 622 46 622 42.5 V 42.5 Q 622 39 632 39" fill="none" stroke="#000" stroke-width="2"/><g transform="translate(20,0)"><g transform="translate(202.8,0)"><g class="match"><g class="recursive-ref"><rect x="0" y="0" width="186.4" height="24" rx="3" ry="3"/><text x="93.2" y="16.666666666666668" font-family="monospace" font-size="14" text-anchor="middle">recurse whole pattern</text></g></g></g></g><g transform="translate(20,0)"><g transform="translate(0,34)"><g class="match"><path d="M 102.4 12 L 112.4 12 M 231.60000000000002 12 L 241.60000000000002 12 M 305.20000000000005 12 L 315.20000000000005 12 M 434.40000000000003 12 L 444.40000000000003 12 M 488.00000000000006 12 L 498.00000000000006 12" fill="none" stroke="#000" stroke-width="2"/><g class="callout"><rect x="0" y="0" width="102.4" height="24" rx="3" ry="3"/><text x="51.2" y="16.666666666666668" font-family="monospace" font-size="14" text-anchor="middle">callout (1)</text></g><g transform="translate(112.4,0)"><g class="anchor"><rect x="0" y="0" width="119.2" height="24" rx="3" ry="3"/><text x="59.6" y="16.666666666666668" font-family="monospace" font-size="14" text-anchor="middle">Word boundary</text></g></g><g transform="translate(241.60000000000002,0)"><g class="repeat"><path d="M 63.6 12 Q 63.6 34 53.6 34 H 10 Q 0 34 0 12" fill="none" stroke="#000" stroke-width="2" class="loop-path"/><path d="M 36.8 29 L 31.8 34 L 36.8 39" fill="none" stroke="#000" stroke-width="2"/><g transform="translate(10,0)"><g class="escape"><rect x="0" y="0" width="43.6" height="24" rx="3" ry="3"/><text x="21.8" y="16.666666666666668" font-family="monospace" font-size="14" text-anchor="middle">word</text></g></g><line x1="0" y1="12" x2="10" y2="12" stroke="#000" stroke-width="2"/><line x1="53.6" y1="12" x2="63.6" y2="12" stroke="#000" stroke-width="2"/></g></g><g transform="translate(315.20000000000005,0)"><g class="anchor"><rect x="0" y="0" width="119.2" height="24" rx="3" ry="3"/><text x="59.6" y="16.666666666666668" font-family="monospace" font-size="14" text-anchor="middle">Word boundary</text></g></g><g transform="translate(444.40000000000003,0)"><g class="backtrack-control"><rect x="0" y="0" width="43.6" height="24" rx="3" ry="3"/><text x="21.8" y="16.666666666666668" font-family="monospace" font-size="14" text-anchor="middle">skip</text></g></g><g transform="translate(498.00000000000006,0)"><g class="backtrack-control"><rect x="0" y="0" width="94" height="24" rx="3" ry="3"/><text x="47" y="16.666666666666668" font-family="monospace" font-size="14" text-anchor="middle">force fail</text></g></g></g></g></g></g></g></svg>