<svg xmlns="http://www.w3.org/2000/svg" width="184" height="141" viewBox="0 0 184 141"><style>
		.literal rect { fill: #ff6b6b; }
		.escape rect { fill: #bada55; }
		.charset rect { fill: #cbcbba; }
		.anchor rect { fill: #6b6659; }
		.any-character rect { fill: #dae9e5; }
		.flags rect { fill: #c8e0f9; }
		.recursive-ref rect { fill: #c9b3ff; }
		.callout rect { fill: #ffd699; }
		.backtrack-control rect { fill: #ffb3a7; }
		.conditional rect { fill: #b3e5fc; }
		.comment rect { fill: #e8e8e8; stroke: #999; stroke-dasharray: 4,2; }
		.comment text { fill: #666; font-style: italic; }
		text { font-family: monospace; font-size: 14px; fill: #000; }
		.anchor text { fill: #fff; }
		.quote { fill: #000; }
		.subexp-label, .charset-label, .flags-label { font-size: 12px; font-style: italic; }
		.repeat-label { fill: #666; font-size: 12px; }
	</style><line x1="5" y1="60.5" x2="10" y2="60.5" stroke="#000" stroke-width="2"/><line x1="174" y1="60.5" x2="179" y2="60.5" stroke="#000" stroke-width="2"/><g transform="translate(10,10)"><g class="match"><g class="subexp"><rect x="0" y="0" width="164" height="121" rx="3" ry="3" fill="none" stroke="#908c83" stroke-width="2"/><text x="10" y="14" font-family="monospace" font-size="12" class="subexp-label">group #1</text><g transform="translate(10,24)"><g class="match"><g class="repeat"><path d="M 144 26.5 Q 144 63 134 63 H 10 Q 0 63 0 26.5" fill="none" stroke="#000" stroke-width="2" class="loop-path"/><path d="M 77 58 L 72 63 L 77 68" fill="none" stroke="#000" stroke-width="2"/><text x="72" y="77" font-family="monospace" font-size="12" text-anchor="middle" class="repeat-label">2+ times</text><g transform="translate(10,0)"><g class="charset"><rect x="0" y="0" width="124" height="53" rx="3" ry="3"/><text x="10" y="14" font-family="monospace" font-size="12" class="charset-label">One of:</text><text x="62" y="38" font-family="monospace" font-size="14" text-anchor="middle">alphabetic</text></g></g><line x1="0" y1="26.5" x2="10" y2="26.5" stroke="#000" stroke-width="2"/><line x1="134" y1="26.5" x2="144" y2="26.5" stroke="#000" stroke-width="2"/></g></g></g></g></g></g></svg>